<svg width="552" height="552" viewBox="0 0 552 552" fill="none" xmlns="http://www.w3.org/2000/svg">
<path d="M261.648 372.931H48.4766C46.8067 372.928 45.2061 372.263 44.0263 371.081C42.8465 369.899 42.1838 368.297 42.1838 366.627V66.9686C42.1984 65.3083 42.8674 63.7206 44.0457 62.5507C45.2239 61.3807 46.8162 60.7228 48.4766 60.72H261.648C263.32 60.72 264.923 61.3842 266.105 62.5664C267.288 63.7486 267.952 65.352 267.952 67.0238V366.627C267.952 368.299 267.288 369.903 266.105 371.085C264.923 372.267 263.32 372.931 261.648 372.931ZM48.4766 60.9408C46.8799 60.9437 45.3495 61.5801 44.2214 62.7102C43.0934 63.8403 42.4598 65.3719 42.4598 66.9686V366.627C42.4598 368.224 43.0934 369.756 44.2214 370.886C45.3495 372.016 46.8799 372.652 48.4766 372.655H261.648C263.246 372.652 264.777 372.016 265.907 370.886C267.037 369.757 267.673 368.225 267.676 366.627V66.9686C267.673 65.3709 267.037 63.8393 265.907 62.7095C264.777 61.5797 263.246 60.9437 261.648 60.9408H48.4766Z" fill="#EBEBEB"/>
<path d="M500.454 372.931H287.272C285.601 372.928 283.999 372.263 282.818 371.082C281.636 369.9 280.971 368.298 280.968 366.627V66.9686C280.985 65.3072 281.657 63.7197 282.837 62.55C284.017 61.3803 285.61 60.7228 287.272 60.72H500.454C502.113 60.7257 503.702 61.3849 504.878 62.5545C506.054 63.7242 506.721 65.3102 506.736 66.9686V366.627C506.736 368.295 506.075 369.895 504.897 371.077C503.72 372.259 502.122 372.925 500.454 372.931ZM287.272 60.9408C285.674 60.9437 284.143 61.5797 283.013 62.7095C281.883 63.8393 281.247 65.3709 281.244 66.9686V366.627C281.247 368.225 281.883 369.757 283.013 370.886C284.143 372.016 285.674 372.652 287.272 372.655H500.454C502.052 372.652 503.584 372.016 504.713 370.886C505.843 369.757 506.479 368.225 506.482 366.627V66.9686C506.479 65.3709 505.843 63.8393 504.713 62.7095C503.584 61.5797 502.052 60.9437 500.454 60.9408H287.272Z" fill="#EBEBEB"/>
<path d="M496.689 439.933H460.125V440.209H496.689V439.933Z" fill="#EBEBEB"/>
<path d="M365.667 442.936H356.073V443.212H365.667V442.936Z" fill="#EBEBEB"/>
<path d="M459.021 429.688H437.835V429.964H459.021V429.688Z" fill="#EBEBEB"/>
<path d="M105.598 431.543H57.9158V431.819H105.598V431.543Z" fill="#EBEBEB"/>
<path d="M122.423 431.543H115.434V431.819H122.423V431.543Z" fill="#EBEBEB"/>
<path d="M248.566 436.201H145.143V436.477H248.566V436.201Z" fill="#EBEBEB"/>
<path d="M552 422.17H0V422.446H552V422.17Z" fill="#EBEBEB"/>
<path d="M171.054 105.057H41.2012V296.932H171.054V105.057Z" fill="#E0E0E0"/>
<path d="M175.834 105.057H45.9817V296.932H175.834V105.057Z" fill="#F0F0F0"/>
<path d="M169.265 206.492H52.2964V285.693H169.265V206.492Z" fill="#EBEBEB"/>
<path d="M169.265 112.851H52.2964V206.492H169.265V112.851Z" fill="white"/>
<path d="M169.265 112.851H165.147V285.693H169.265V112.851Z" fill="#E0E0E0"/>
<path d="M51.9321 206.503V210.676H165.589V206.503H51.9321Z" fill="#E0E0E0"/>
<path d="M169.265 199.482H50.0884V206.492H169.265V199.482Z" fill="#F0F0F0"/>
<path d="M483.74 332.889H325.47C313.477 332.889 303.755 342.612 303.755 354.605V401.712C303.755 413.706 313.477 423.428 325.47 423.428H483.74C495.733 423.428 505.455 413.706 505.455 401.712V354.605C505.455 342.612 495.733 332.889 483.74 332.889Z" fill="#E0E0E0"/>
<path d="M473.108 333.552H314.839C302.845 333.552 293.123 343.274 293.123 355.267V402.375C293.123 414.368 302.845 424.091 314.839 424.091H473.108C485.101 424.091 494.824 414.368 494.824 402.375V355.267C494.824 343.274 485.101 333.552 473.108 333.552Z" fill="#F5F5F5"/>
<path d="M318.725 342.096H470.415C472.407 342.096 474.379 342.489 476.219 343.251C478.06 344.013 479.732 345.131 481.141 346.539C482.549 347.948 483.666 349.62 484.429 351.461C485.191 353.301 485.583 355.273 485.583 357.265V375.879H303.6V357.254C303.603 353.241 305.196 349.392 308.031 346.551C310.866 343.71 314.711 342.108 318.725 342.096Z" fill="#E0E0E0"/>
<path d="M303.6 380.438H485.583V399.052C485.583 403.075 483.985 406.933 481.141 409.778C478.296 412.623 474.438 414.221 470.415 414.221H318.725C314.71 414.209 310.863 412.606 308.027 409.762C305.192 406.919 303.6 403.067 303.6 399.052V380.438Z" fill="#E0E0E0"/>
<path d="M436.621 348.632H403.291V376.089H436.621V348.632Z" fill="#E6E6E6"/>
<path d="M403.291 348.632H394.757V376.089H403.291V348.632Z" fill="#F5F5F5"/>
<path d="M401.856 368.736C401.856 369.291 401.692 369.833 401.384 370.294C401.075 370.755 400.637 371.114 400.125 371.327C399.613 371.539 399.049 371.594 398.505 371.486C397.961 371.378 397.461 371.111 397.069 370.719C396.677 370.327 396.41 369.827 396.302 369.283C396.193 368.739 396.249 368.175 396.461 367.663C396.673 367.15 397.033 366.713 397.494 366.404C397.955 366.096 398.497 365.932 399.052 365.932C399.796 365.932 400.509 366.227 401.035 366.753C401.561 367.279 401.856 367.992 401.856 368.736Z" fill="#E0E0E0"/>
<path d="M445.365 344.393H420.326V376.089H445.365V344.393Z" fill="#E6E6E6"/>
<path d="M420.337 344.393H413.095V376.089H420.337V344.393Z" fill="#F5F5F5"/>
<path d="M416.716 351.48C418.088 351.48 419.2 350.368 419.2 348.996C419.2 347.625 418.088 346.512 416.716 346.512C415.344 346.512 414.232 347.625 414.232 348.996C414.232 350.368 415.344 351.48 416.716 351.48Z" fill="#E0E0E0"/>
<path d="M416.716 351.48C418.088 351.48 419.2 350.368 419.2 348.996C419.2 347.625 418.088 346.512 416.716 346.512C415.344 346.512 414.232 347.625 414.232 348.996C414.232 350.368 415.344 351.48 416.716 351.48Z" fill="#E0E0E0"/>
<path d="M448.809 348.632H427.701V376.089H448.809V348.632Z" fill="#EBEBEB"/>
<path d="M427.701 348.632H422.876V376.089H427.701V348.632Z" fill="#F5F5F5"/>
<path d="M472.667 353.28H444.978V376.1H472.667V353.28Z" fill="#E6E6E6"/>
<path d="M444.978 353.28H437.891V376.1H444.978V353.28Z" fill="#F5F5F5"/>
<path d="M479.92 349.758H459.121V376.089H479.92V349.758Z" fill="#E6E6E6"/>
<path d="M459.143 349.758H453.126V376.089H459.143V349.758Z" fill="#F5F5F5"/>
<path d="M485.462 353.28H465.259V376.1H485.462V353.28Z" fill="#E6E6E6"/>
<path d="M465.248 353.28H461.24V376.1H465.248V353.28Z" fill="#F0F0F0"/>
<path d="M356.956 385.716H331.156V413.172H356.956V385.716Z" fill="#E6E6E6"/>
<path d="M331.167 385.716H324.554V413.172H331.167V385.716Z" fill="#F5F5F5"/>
<path d="M363.713 381.476H344.338V413.172H363.713V381.476Z" fill="#E6E6E6"/>
<path d="M344.349 381.476H338.751V413.172H344.349V381.476Z" fill="#F5F5F5"/>
<path d="M444.967 385.716H419.167V413.172H444.967V385.716Z" fill="#E6E6E6"/>
<path d="M419.178 385.716H412.565V413.172H419.178V385.716Z" fill="#F5F5F5"/>
<path d="M451.724 381.476H432.348V413.172H451.724V381.476Z" fill="#E6E6E6"/>
<path d="M432.371 381.476H426.762V413.172H432.371V381.476Z" fill="#F5F5F5"/>
<path d="M366.396 385.716H350.056V413.172H366.396V385.716Z" fill="#EBEBEB"/>
<path d="M350.056 385.716H346.325V413.172H350.056V385.716Z" fill="#F5F5F5"/>
<path d="M384.854 390.363H363.426V413.183H384.854V390.363Z" fill="#E6E6E6"/>
<path d="M363.426 390.363H357.939V413.183H363.426V390.363Z" fill="#F5F5F5"/>
<path d="M390.474 386.842H374.377V413.172H390.474V386.842Z" fill="#E6E6E6"/>
<path d="M374.388 386.842H369.729V413.172H374.388V386.842Z" fill="#F5F5F5"/>
<path d="M394.768 390.363H379.125V413.183H394.768V390.363Z" fill="#E6E6E6"/>
<path d="M379.113 390.363H376.011V413.183H379.113V390.363Z" fill="#F0F0F0"/>
<path d="M375.857 306.559C375.586 306.032 375.154 305.606 374.623 305.342C374.093 305.077 373.493 304.989 372.909 305.09C372.322 305.234 371.794 305.557 371.399 306.014C371.003 306.471 370.759 307.039 370.701 307.641C370.299 307.343 369.816 307.176 369.317 307.163C368.817 307.149 368.325 307.289 367.908 307.563C367.49 307.867 367.166 308.281 366.971 308.758C366.776 309.236 366.718 309.759 366.804 310.268C366.572 310.098 366.307 309.979 366.027 309.917C365.746 309.856 365.456 309.854 365.174 309.911C364.892 309.968 364.626 310.083 364.391 310.249C364.157 310.415 363.959 310.629 363.812 310.875C363.541 311.407 363.484 312.022 363.655 312.594C363.826 313.165 364.21 313.649 364.728 313.944C364.37 313.997 364.044 314.179 363.811 314.456C363.578 314.733 363.455 315.085 363.464 315.447C363.474 315.809 363.616 316.154 363.863 316.419C364.11 316.683 364.445 316.847 364.806 316.881C364.435 316.909 364.086 317.066 363.818 317.324C363.55 317.582 363.38 317.925 363.337 318.294C363.297 318.666 363.385 319.039 363.585 319.354C363.786 319.669 364.088 319.907 364.441 320.028C364.267 320.128 364.117 320.267 364.003 320.433C363.89 320.6 363.815 320.789 363.784 320.989C363.753 321.188 363.767 321.391 363.826 321.584C363.884 321.777 363.985 321.954 364.121 322.103C364.277 322.224 364.46 322.306 364.654 322.341C364.848 322.376 365.048 322.363 365.236 322.303C365.424 322.243 365.595 322.138 365.734 321.998C365.872 321.857 365.974 321.685 366.031 321.496C366.059 321.55 366.099 321.598 366.148 321.634C366.197 321.67 366.255 321.694 366.315 321.703C366.375 321.713 366.437 321.708 366.495 321.69C366.553 321.671 366.606 321.638 366.649 321.595C366.689 321.546 366.717 321.488 366.733 321.427C366.749 321.366 366.752 321.302 366.741 321.239C366.731 321.177 366.707 321.118 366.673 321.065C366.638 321.012 366.592 320.967 366.539 320.933C366.628 321.034 366.742 321.108 366.871 321.148C366.999 321.188 367.136 321.192 367.266 321.158C367.397 321.125 367.515 321.057 367.609 320.96C367.703 320.864 367.768 320.744 367.798 320.613C367.755 320.926 367.795 321.246 367.914 321.539C368.033 321.833 368.226 322.09 368.474 322.286C368.723 322.483 369.018 322.611 369.331 322.658C369.644 322.705 369.964 322.67 370.259 322.556C370.197 322.701 370.167 322.858 370.17 323.017C370.174 323.175 370.212 323.33 370.281 323.473C370.35 323.615 370.449 323.741 370.571 323.842C370.693 323.943 370.835 324.016 370.988 324.057C371.604 324.159 372.236 324.033 372.766 323.704C373.292 323.373 373.89 323.172 374.51 323.119C375.047 323.187 375.571 323.332 376.067 323.549C376.898 323.801 377.784 323.816 378.624 323.594C379.464 323.372 380.226 322.921 380.825 322.291C381.049 322.549 381.335 322.746 381.655 322.864C381.976 322.982 382.321 323.017 382.659 322.967C382.997 322.916 383.316 322.781 383.588 322.574C383.86 322.367 384.075 322.095 384.214 321.783C384.268 322.103 384.428 322.396 384.67 322.613C384.912 322.831 385.22 322.959 385.545 322.979C385.869 322.998 386.19 322.906 386.456 322.719C386.722 322.532 386.916 322.26 387.007 321.948V322.81C387.308 322.835 387.611 322.784 387.887 322.662C388.163 322.54 388.404 322.351 388.588 322.111C388.771 321.871 388.892 321.589 388.938 321.29C388.984 320.992 388.954 320.687 388.851 320.403C389.285 320.386 389.7 320.216 390.021 319.923C390.342 319.63 390.549 319.233 390.606 318.802C390.655 318.367 390.553 317.928 390.315 317.56C390.078 317.191 389.72 316.917 389.303 316.782C390.015 316.549 390.636 316.1 391.079 315.496C391.521 314.892 391.763 314.165 391.771 313.416C391.778 312.668 391.55 311.936 391.119 311.323C390.689 310.711 390.077 310.249 389.37 310.003C389.102 309.901 388.812 309.868 388.528 309.909C388.244 309.95 387.975 310.062 387.747 310.235C387.637 310.33 387.549 310.448 387.488 310.581C387.428 310.713 387.397 310.857 387.397 311.002C387.397 311.148 387.428 311.292 387.488 311.424C387.549 311.556 387.637 311.674 387.747 311.77C387.941 311.087 387.91 310.36 387.659 309.696C387.409 309.033 386.952 308.467 386.356 308.082C385.746 307.758 385.042 307.661 384.367 307.806C383.692 307.952 383.091 308.331 382.668 308.877C382.871 308.575 382.979 308.22 382.979 307.856C382.979 307.492 382.871 307.137 382.668 306.835C382.471 306.548 382.185 306.333 381.854 306.224C381.523 306.114 381.166 306.115 380.836 306.228C380.755 305.772 380.505 305.364 380.137 305.084C379.769 304.803 379.309 304.672 378.849 304.715C378.392 304.818 377.988 305.082 377.712 305.46C377.436 305.837 377.306 306.302 377.347 306.768C377.311 306.587 377.221 306.421 377.09 306.291C376.959 306.161 376.792 306.074 376.61 306.039C376.429 306.005 376.241 306.025 376.072 306.098C375.902 306.171 375.758 306.293 375.658 306.448C375.205 306.305 375.857 306.559 375.857 306.559Z" fill="#EBEBEB"/>
<path d="M376.188 315.38C376.007 315.246 375.802 315.15 375.584 315.097C375.366 315.044 375.14 315.035 374.918 315.071C374.7 315.113 374.498 315.217 374.336 315.369C374.174 315.521 374.058 315.716 374.002 315.932C373.957 316.151 373.995 316.379 374.109 316.571C374.224 316.763 374.406 316.905 374.62 316.969C375.139 317.102 375.669 316.66 376.199 316.738C376.398 316.738 376.574 316.859 376.762 316.903C377.164 316.949 377.572 316.903 377.954 316.769C378.337 316.635 378.684 316.417 378.97 316.13C379.207 315.979 379.413 315.785 379.577 315.556C379.659 315.442 379.709 315.308 379.721 315.168C379.732 315.028 379.706 314.887 379.643 314.761C379.519 314.61 379.355 314.498 379.169 314.437C378.983 314.377 378.784 314.37 378.595 314.419C377.81 314.506 377.066 314.816 376.453 315.313L376.508 314.949L376.188 315.38Z" fill="#FAFAFA"/>
<path d="M387.371 314.717C387.175 314.553 386.945 314.432 386.698 314.364C386.576 314.326 386.446 314.324 386.323 314.357C386.2 314.39 386.089 314.458 386.003 314.552C385.915 314.703 385.886 314.882 385.923 315.054C385.96 315.225 386.059 315.377 386.201 315.479C386.49 315.674 386.825 315.788 387.173 315.81C387.537 315.865 387.979 315.876 388.155 315.567C388.207 315.447 388.22 315.314 388.19 315.187C388.16 315.059 388.09 314.945 387.99 314.861C387.786 314.697 387.548 314.58 387.294 314.519L387.371 314.717Z" fill="#FAFAFA"/>
<path d="M369.696 308.899C369.341 309.052 369.026 309.286 368.779 309.584C368.531 309.881 368.358 310.233 368.272 310.61C368.23 310.718 368.222 310.837 368.25 310.95C368.278 311.062 368.339 311.163 368.427 311.24C368.504 311.272 368.586 311.289 368.67 311.289C368.753 311.289 368.836 311.272 368.913 311.24L370.955 310.754C370.621 310.862 370.311 311.03 370.039 311.251C369.902 311.359 369.797 311.503 369.735 311.666C369.672 311.829 369.655 312.006 369.685 312.178C369.752 312.374 369.881 312.542 370.053 312.657C370.224 312.773 370.428 312.83 370.635 312.818C371.041 312.785 371.426 312.627 371.739 312.366C371.93 312.256 372.094 312.105 372.218 311.924C372.342 311.742 372.424 311.535 372.456 311.317C372.456 310.886 371.904 310.478 371.573 310.754C372.357 310.541 373.102 310.205 373.781 309.76C374.028 309.605 374.242 309.403 374.41 309.164C374.493 309.042 374.543 308.901 374.555 308.753C374.566 308.606 374.539 308.459 374.477 308.325C373.781 307.056 372.898 308.921 372.467 309.087C371.662 309.407 370.734 308.458 369.696 308.899Z" fill="#FAFAFA"/>
<path d="M366.528 314.32C366.486 314.444 366.48 314.577 366.511 314.705C366.542 314.832 366.61 314.947 366.705 315.037C366.755 315.076 366.812 315.103 366.874 315.117C366.935 315.131 366.999 315.132 367.06 315.119C367.122 315.106 367.18 315.081 367.231 315.044C367.282 315.007 367.325 314.96 367.356 314.905C366.884 314.994 366.454 315.234 366.131 315.589C366.056 315.681 366.003 315.789 365.975 315.903C365.947 316.018 365.944 316.138 365.968 316.254C365.991 316.369 366.039 316.479 366.109 316.574C366.179 316.669 366.27 316.747 366.373 316.804C366.521 316.83 366.673 316.826 366.819 316.792C366.965 316.758 367.103 316.694 367.224 316.605C367.965 316.202 368.67 315.737 369.332 315.214C369.133 315.689 369.619 316.219 370.127 316.318C370.643 316.309 371.142 316.135 371.551 315.821C372.092 315.49 372.655 314.993 372.567 314.386C372.459 314.139 372.265 313.94 372.022 313.826C371.778 313.712 371.5 313.692 371.242 313.768C370.735 313.979 370.29 314.318 369.95 314.75C370.237 314.342 369.84 313.713 369.332 313.646C369.086 313.634 368.841 313.682 368.618 313.786C368.395 313.89 368.2 314.047 368.052 314.243C368.626 313.922 368.747 313.139 367.985 313.017C367.477 312.896 366.638 313.911 366.528 314.32Z" fill="#FAFAFA"/>
<path d="M382.15 312.498C382.04 312.462 381.925 312.448 381.81 312.457C381.695 312.466 381.583 312.497 381.48 312.55C381.378 312.602 381.286 312.674 381.212 312.762C381.137 312.85 381.081 312.952 381.046 313.061C381.023 313.172 381.023 313.286 381.044 313.398C381.066 313.509 381.109 313.614 381.172 313.709C381.234 313.803 381.315 313.884 381.409 313.947C381.503 314.011 381.608 314.055 381.719 314.077C381.384 314.111 381.076 314.273 380.858 314.53C380.793 314.599 380.744 314.681 380.711 314.77C380.679 314.859 380.665 314.954 380.67 315.048C380.705 315.183 380.784 315.301 380.894 315.385C381.004 315.469 381.139 315.514 381.277 315.512C381.559 315.5 381.835 315.425 382.083 315.291C381.806 315.288 381.534 315.365 381.3 315.512C381.242 315.551 381.193 315.601 381.156 315.659C381.118 315.717 381.093 315.782 381.082 315.85C381.07 315.919 381.073 315.988 381.09 316.056C381.106 316.123 381.136 316.186 381.178 316.241C381.272 316.306 381.381 316.347 381.495 316.358C381.609 316.37 381.724 316.352 381.829 316.307C382.334 316.173 382.797 315.915 383.176 315.556C383.31 315.717 383.48 315.844 383.671 315.926C383.863 316.009 384.072 316.045 384.28 316.031C384.384 316.015 384.483 315.979 384.571 315.923C384.66 315.868 384.737 315.795 384.796 315.71C384.856 315.624 384.898 315.527 384.92 315.425C384.941 315.323 384.941 315.217 384.921 315.115C384.862 314.974 384.767 314.853 384.644 314.763C384.521 314.674 384.376 314.62 384.225 314.607C383.921 314.591 383.617 314.636 383.331 314.739C383.65 314.565 383.903 314.289 384.048 313.956C384.159 313.613 383.927 313.15 383.563 313.183C383.198 313.216 382.956 313.757 382.635 313.956C382.271 313.591 383.011 312.818 382.15 312.498Z" fill="#FAFAFA"/>
<path d="M374.852 310.809C374.636 310.985 374.467 311.213 374.363 311.472C374.259 311.731 374.222 312.012 374.256 312.288C374.256 312.598 374.338 312.901 374.493 313.169C374.648 313.437 374.871 313.658 375.139 313.812C375.33 313.871 375.532 313.889 375.73 313.865C375.928 313.84 376.119 313.773 376.29 313.669C376.46 313.564 376.606 313.424 376.718 313.258C376.83 313.093 376.905 312.905 376.939 312.708C376.979 312.305 376.895 311.9 376.698 311.546C376.5 311.193 376.199 310.908 375.835 310.732C375.676 310.668 375.505 310.641 375.334 310.655C375.164 310.668 374.999 310.721 374.852 310.809Z" fill="#FAFAFA"/>
<path d="M380.019 310.147L380.206 310.312C380.129 310.208 380.031 310.12 379.917 310.056C379.804 309.992 379.679 309.952 379.549 309.94C379.42 309.927 379.289 309.942 379.165 309.983C379.042 310.025 378.929 310.092 378.833 310.18C378.737 310.268 378.661 310.375 378.609 310.495C378.557 310.614 378.531 310.743 378.533 310.873C378.534 311.004 378.563 311.132 378.618 311.25C378.672 311.368 378.751 311.474 378.849 311.56C379.043 311.725 379.294 311.806 379.548 311.788C379.802 311.769 380.038 311.652 380.206 311.46C380.471 311.591 380.771 311.633 381.062 311.579C381.352 311.526 381.618 311.379 381.818 311.162C381.991 310.929 382.064 310.637 382.023 310.35C381.981 310.063 381.829 309.803 381.597 309.628C381.47 309.566 381.329 309.536 381.187 309.542C381.045 309.548 380.906 309.588 380.784 309.66C380.661 309.733 380.559 309.834 380.485 309.955C380.411 310.077 380.369 310.215 380.361 310.356L380.14 310.114L380.019 310.147Z" fill="#FAFAFA"/>
<path d="M385.727 311.074C385.327 311.4 385.022 311.827 384.843 312.311C384.766 312.556 384.783 312.821 384.891 313.054C384.999 313.287 385.191 313.471 385.429 313.569C385.925 313.691 386.389 313.282 386.676 312.863C386.819 312.681 386.919 312.47 386.971 312.245C387.022 312.019 387.023 311.786 386.974 311.56C386.831 311.118 386.201 310.864 385.87 311.196L385.727 311.074Z" fill="#FAFAFA"/>
<path d="M377.502 308.082C377.449 307.983 377.376 307.896 377.289 307.825C377.201 307.754 377.1 307.702 376.992 307.671C376.884 307.64 376.771 307.631 376.659 307.645C376.548 307.659 376.44 307.695 376.343 307.751C376.153 307.882 376.014 308.074 375.948 308.294C375.881 308.515 375.892 308.752 375.978 308.965C376.075 309.181 376.229 309.367 376.424 309.501C376.618 309.635 376.846 309.713 377.082 309.727C377.634 309.782 378.297 309.33 378.186 308.778C378.318 308.936 378.49 309.058 378.684 309.129C378.877 309.201 379.087 309.221 379.29 309.186C379.683 309.123 380.059 308.98 380.394 308.767C380.869 308.491 381.366 308.082 381.322 307.541C381.287 307.325 381.179 307.127 381.016 306.981C380.854 306.834 380.646 306.748 380.427 306.735C380.211 306.725 379.994 306.759 379.791 306.835C379.588 306.911 379.403 307.027 379.246 307.177C378.992 307.398 378.771 307.663 378.495 307.861C378.363 307.97 378.203 308.04 378.034 308.063C377.864 308.087 377.692 308.063 377.535 307.994L377.502 308.082Z" fill="#FAFAFA"/>
<path d="M384.523 333.187H370.381L369.001 318.935H385.903L384.523 333.187Z" fill="#F0F0F0"/>
<path d="M387.007 319.674H367.765L367.422 317.775H387.35L387.007 319.674Z" fill="#FAFAFA"/>
<path d="M369.84 376.056H353.611L358.701 359.672L359.44 357.288H363.117L369.84 376.056Z" fill="#EBEBEB"/>
<path d="M359.44 357.288L358.701 359.672L353.611 376.056L338.608 375.835L333.783 359.672L333.044 357.288H359.44Z" fill="#E0E0E0"/>
<path d="M359.44 357.288L358.701 359.672L353.611 376.056L322.799 375.603L329.367 357.288H359.44Z" fill="#FAFAFA"/>
<path d="M359.44 357.288L358.701 359.672H328.517L329.367 357.288H359.44Z" fill="#EBEBEB"/>
<path d="M333.154 367.455H326.386L328.749 360.831L335.218 360.898L333.154 367.455ZM327.17 366.903H332.69L334.413 361.383L329.08 361.328L327.17 366.903Z" fill="#EBEBEB"/>
<path d="M340.727 367.455H333.96L336.311 360.831L342.792 360.898L340.727 367.455ZM334.733 366.903H340.319L342.041 361.383L336.709 361.328L334.733 366.903Z" fill="#EBEBEB"/>
<path d="M348.29 367.455H341.522L343.885 360.831L350.354 360.898L348.29 367.455ZM342.306 366.903H347.893L349.604 361.383L344.271 361.328L342.306 366.903Z" fill="#EBEBEB"/>
<path d="M355.863 367.455H349.096L351.458 360.831L357.928 360.898L355.863 367.455ZM349.88 366.903H355.488L357.21 361.383L351.878 361.328L349.88 366.903Z" fill="#EBEBEB"/>
<path d="M330.791 374.532H324.024L326.387 367.908L332.856 367.985L330.791 374.532ZM324.808 373.98H330.383L332.105 368.46H326.773L324.808 373.98Z" fill="#EBEBEB"/>
<path d="M338.365 374.532H331.597L333.96 367.908L340.429 367.985L338.365 374.532ZM332.381 373.98H337.956L339.679 368.46H334.346L332.381 373.98Z" fill="#EBEBEB"/>
<path d="M345.927 374.532H339.16L341.522 367.908L347.992 367.985L345.927 374.532ZM339.944 373.98H345.552L347.274 368.46H341.931L339.944 373.98Z" fill="#EBEBEB"/>
<path d="M353.501 374.532H346.733L349.096 367.908L355.565 367.985L353.501 374.532ZM347.517 373.98H353.092L354.815 368.46H349.482L347.517 373.98Z" fill="#EBEBEB"/>
<path d="M456.184 324.344C456.184 327.822 456.736 330.074 457.652 331.52C458.005 332.049 458.485 332.481 459.048 332.776C459.612 333.071 460.24 333.22 460.876 333.209H465.888C466.522 333.219 467.149 333.07 467.71 332.775C468.271 332.48 468.749 332.048 469.101 331.52C470.028 330.074 470.569 327.822 470.569 324.344C470.569 319.299 468.361 315.258 467.654 312.035C467.389 310.875 468.251 307.309 468.251 307.309H458.48C458.48 307.309 459.341 310.875 459.076 312.035C458.381 315.258 456.184 319.299 456.184 324.344Z" fill="#F0F0F0"/>
<path d="M466.65 282.955C465.629 283.239 464.72 283.829 464.044 284.644C463.084 285.925 464.74 288.928 464.74 288.928C465.197 289.375 465.753 289.708 466.363 289.9C466.973 290.092 467.62 290.137 468.251 290.032L470.205 289.557C470.205 289.557 468.096 283.728 466.661 283.342L466.65 282.955Z" fill="#EBEBEB"/>
<path d="M474.334 284.357C474.08 286.93 471.916 289.811 469.62 289.59C467.323 289.369 465.789 286.091 466.043 283.529C466.296 280.968 468.173 281.056 470.459 281.321C472.744 281.586 474.599 281.796 474.334 284.357Z" fill="#EBEBEB"/>
<path d="M467.875 282.37C467.875 282.37 469.344 284.07 473.042 283.938C473.042 283.938 466.738 286.609 467.875 282.37Z" fill="#EBEBEB"/>
<path d="M469.487 282.16C469.487 282.16 471.541 282.16 471.419 283.021C471.419 283.021 473.119 283.242 473.02 282.492C472.92 281.741 469.487 282.16 469.487 282.16Z" fill="#EBEBEB"/>
<path d="M467.875 282.37C467.875 282.37 469.344 284.07 473.042 283.938C473.042 283.938 466.738 286.609 467.875 282.37Z" fill="#E0E0E0"/>
<path d="M469.487 282.16C469.487 282.16 471.541 282.16 471.419 283.021C471.419 283.021 473.119 283.242 473.02 282.492C472.92 281.741 469.487 282.16 469.487 282.16Z" fill="#E0E0E0"/>
<path d="M465.689 289.668C465.963 290.31 466.411 290.862 466.983 291.262C467.555 291.662 468.227 291.894 468.924 291.931C469.621 291.958 470.315 291.839 470.963 291.583C471.612 291.326 472.199 290.937 472.689 290.44C473.662 289.439 474.341 288.191 474.654 286.83C474.742 286.477 474.941 285.605 474.499 285.373C474.058 285.141 473.715 285.715 473.472 285.958C472.768 286.657 471.991 287.279 471.154 287.813C470.332 288.334 469.45 288.753 468.526 289.06C468.273 289.149 465.778 289.899 465.689 289.668Z" fill="#EBEBEB"/>
<path d="M476.31 286.455C476.421 287.01 476.389 287.585 476.215 288.125C476.041 288.664 475.731 289.15 475.316 289.535C474.748 290.023 474.092 290.397 473.384 290.639C472.898 290.816 472.28 290.959 471.916 290.639C471.551 290.319 471.684 289.59 471.916 289.071C472.236 288.276 472.567 287.493 472.931 286.709C473.189 285.923 473.561 285.179 474.035 284.501C474.499 284.037 474.963 284.501 475.449 284.942C475.865 285.361 476.163 285.883 476.31 286.455Z" fill="#EBEBEB"/>
<path d="M466.528 288.376C466.097 288.269 465.706 288.043 465.399 287.722C465.092 287.402 464.883 287 464.795 286.565C464.674 285.914 464.961 284.357 465.778 284.357C465.773 285.732 466.027 287.096 466.528 288.376Z" fill="#E0E0E0"/>
<path d="M472.744 288.828C473.179 288.786 473.597 288.637 473.961 288.394C474.325 288.152 474.624 287.823 474.83 287.437C475.051 287.007 475.316 284.666 474.444 285.505C474.157 285.781 474.013 286.808 473.815 287.195C473.526 287.781 473.166 288.33 472.744 288.828Z" fill="#E0E0E0"/>
<path d="M469.333 289.656C469.606 289.982 469.98 290.207 470.396 290.297C470.811 290.387 471.245 290.336 471.629 290.153C471.463 290.584 469.984 290.694 469.531 290.738C468.328 290.86 467.831 290.242 466.815 289.579C466.815 289.579 468.505 290.175 469.333 289.656Z" fill="#E0E0E0"/>
<path d="M462.035 330.438L464.861 301.933L468.593 291.809L469.244 292.052L465.524 302.121L462.576 331.222L462.035 330.438Z" fill="#E6E6E6"/>
<path d="M465.502 301.878L464.883 302.187C464.439 301.223 464.07 300.227 463.779 299.206C463.24 297.184 462.442 295.239 461.406 293.421L461.991 293.057C463.059 294.924 463.883 296.92 464.442 298.996C464.724 299.981 465.078 300.944 465.502 301.878Z" fill="#E6E6E6"/>
<path d="M466.992 298.135C467.96 298.064 468.87 297.644 469.553 296.954C470.271 296.124 470.809 295.154 471.132 294.106C469.873 294.238 468.714 293.421 467.456 293.333C466.954 293.301 466.452 293.384 465.987 293.575C465.522 293.767 465.107 294.061 464.773 294.437C463.923 295.43 463.426 296.645 463.89 297.241C464.767 297.933 465.881 298.254 466.992 298.135Z" fill="#F0F0F0"/>
<path d="M456.924 295.044C457.508 294.646 458.174 294.383 458.872 294.272C459.571 294.161 460.285 294.206 460.964 294.404C461.501 294.607 461.981 294.935 462.366 295.361C462.75 295.788 463.026 296.3 463.172 296.855C462.922 297.176 462.591 297.424 462.212 297.574C461.833 297.723 461.421 297.769 461.019 297.705C460.216 297.557 459.445 297.265 458.745 296.844C458.044 296.425 457.274 296.134 456.471 295.982L456.924 295.044Z" fill="#F0F0F0"/>
<path d="M463.15 295.585C461.516 295.773 460.048 296.093 458.558 294.238C457.564 292.991 457.884 291.103 457.95 289.612C459.8 290.203 461.592 290.96 463.305 291.876C463.672 292.04 463.996 292.287 464.253 292.598C464.509 292.908 464.691 293.273 464.784 293.664C464.837 294.046 464.744 294.433 464.522 294.749C464.301 295.064 463.969 295.284 463.592 295.364L463.15 295.585Z" fill="#F0F0F0"/>
<path d="M458.469 317.775C457.673 319.616 457.295 321.611 457.365 323.616C457.365 323.991 457.52 324.421 457.796 324.488C458.072 324.554 458.292 324.245 458.381 323.903C458.451 323.539 458.473 323.168 458.447 322.799C458.447 319.74 460.103 317.157 460.423 314.176C460.511 313.326 460.291 310.655 459.794 312.62C459.385 314.419 459.076 316.053 458.469 317.775Z" fill="#FAFAFA"/>
<path d="M227.17 378.517C227.17 378.517 230.383 342.958 216.251 325.625C202.12 308.292 227.291 324.068 231.707 341.357C231.707 341.357 232.535 309.341 218.459 288.641C204.383 267.941 228.395 283.43 232.58 306.04C232.58 306.04 233.386 277.49 226.342 262.366C219.299 247.241 229.798 256.238 234.445 265.678C239.093 275.117 236.797 300.288 236.797 300.288C236.797 300.288 241.732 253.81 251.149 256.327C260.566 258.844 241.047 291.268 239.491 307.111C239.491 307.111 248.014 285.031 256.503 288.343C264.993 291.655 244.679 296.336 238.398 328.473L236.521 343.344C236.521 343.344 244.249 321.639 251.27 327.347C258.292 333.055 234.103 347.285 231.398 379.092L227.17 378.517Z" fill="#EBEBEB"/>
<path d="M228.694 380.361C228.694 380.361 225.68 336.389 243.576 315.435C261.471 294.481 230.007 313.172 224.046 334.368C224.046 334.368 223.869 294.867 241.831 269.74C259.793 244.613 229.687 262.995 223.935 290.716C223.935 290.716 223.715 255.477 232.767 237.029C241.82 218.581 228.661 229.356 222.677 240.882C216.693 252.408 218.868 283.441 218.868 283.441C218.868 283.441 214.01 225.934 202.385 228.738C190.76 231.542 213.911 272.169 215.413 291.743C215.413 291.743 205.477 264.231 194.922 268.095C184.368 271.959 209.274 278.34 216.174 318.195L218.084 336.72C218.084 336.72 209.164 309.705 200.321 316.506C191.478 323.306 220.966 341.655 223.505 381.001L228.694 380.361Z" fill="#F0F0F0"/>
<path d="M256.503 402.287C256.503 414.353 243.421 424.146 227.281 424.146C211.14 424.146 198.047 414.353 198.047 402.287C198.047 396.844 200.696 391.887 205.09 388.067L201.635 373.439H252.915L249.504 388.067C253.854 391.92 256.503 396.844 256.503 402.287Z" fill="#EBEBEB"/>
<path d="M276 471.419C394.219 471.419 490.055 465.824 490.055 458.922C490.055 452.02 394.219 446.424 276 446.424C157.781 446.424 61.9456 452.02 61.9456 458.922C61.9456 465.824 157.781 471.419 276 471.419Z" fill="#F5F5F5"/>
<path d="M258.413 283.728L261.173 267.808L266.594 269.376L258.413 283.728Z" fill="#407BFF"/>
<path d="M260.235 288.828L275.757 284.335L273.593 279.113L260.235 288.828Z" fill="#407BFF"/>
<path d="M262.995 282.834L271.838 266.119L277.8 270.259L262.995 282.834Z" fill="#407BFF"/>
<path d="M362.896 127.711H346.81C346.139 127.667 345.509 127.37 345.048 126.879C344.588 126.388 344.332 125.74 344.332 125.067C344.332 124.394 344.588 123.746 345.048 123.255C345.509 122.763 346.139 122.466 346.81 122.423H362.896C363.567 122.466 364.197 122.763 364.658 123.255C365.118 123.746 365.374 124.394 365.374 125.067C365.374 125.74 365.118 126.388 364.658 126.879C364.197 127.37 363.567 127.667 362.896 127.711Z" fill="#407BFF"/>
<g opacity="0.7">
<path d="M362.896 127.711H346.81C346.139 127.667 345.509 127.37 345.048 126.879C344.588 126.388 344.332 125.74 344.332 125.067C344.332 124.394 344.588 123.746 345.048 123.255C345.509 122.763 346.139 122.466 346.81 122.423H362.896C363.567 122.466 364.197 122.763 364.658 123.255C365.118 123.746 365.374 124.394 365.374 125.067C365.374 125.74 365.118 126.388 364.658 126.879C364.197 127.37 363.567 127.667 362.896 127.711Z" fill="white"/>
</g>
<path d="M421.905 181.928L360.235 295.419C359.852 296.12 359.207 296.64 358.442 296.866C357.676 297.092 356.852 297.004 356.15 296.623L251.215 239.568C250.514 239.185 249.994 238.54 249.769 237.774C249.543 237.009 249.63 236.185 250.012 235.483L330.217 87.9005C330.6 87.1998 331.245 86.6795 332.011 86.4539C332.777 86.2283 333.601 86.3158 334.302 86.6971L404.958 125.116L421.905 181.928Z" fill="#407BFF"/>
<g opacity="0.2">
<path d="M421.905 181.928L360.235 295.419C359.852 296.12 359.207 296.64 358.442 296.866C357.676 297.092 356.852 297.004 356.15 296.623L251.215 239.568C250.514 239.185 249.994 238.54 249.769 237.774C249.543 237.009 249.63 236.185 250.012 235.483L330.217 87.9005C330.6 87.1998 331.245 86.6795 332.011 86.4539C332.777 86.2283 333.601 86.3158 334.302 86.6971L404.958 125.116L421.905 181.928Z" fill="white"/>
</g>
<path d="M387.278 207.413L308.91 165.127L306.288 169.985L384.657 212.271L387.278 207.413Z" fill="#407BFF"/>
<path d="M376.575 227.26L298.207 184.974L295.586 189.832L373.954 232.118L376.575 227.26Z" fill="#407BFF"/>
<path d="M365.862 247.118L287.493 204.833L284.872 209.691L363.24 251.976L365.862 247.118Z" fill="#407BFF"/>
<path d="M405.102 125.061L386.51 159.285C386.129 159.987 386.042 160.811 386.267 161.576C386.493 162.342 387.013 162.987 387.714 163.37L421.838 181.917L405.102 125.061Z" fill="#407BFF"/>
<path opacity="0.7" d="M405.102 125.061L386.51 159.285C386.129 159.987 386.042 160.811 386.267 161.576C386.493 162.342 387.013 162.987 387.714 163.37L421.838 181.917L405.102 125.061Z" fill="white"/>
<path d="M437.979 178.108L376.32 291.6C375.938 292.3 375.293 292.82 374.527 293.046C373.761 293.272 372.937 293.184 372.236 292.803L267.3 235.792C266.598 235.412 266.075 234.767 265.847 234.001C265.62 233.235 265.705 232.41 266.086 231.708L346.292 84.0917C346.672 83.3891 347.316 82.8665 348.083 82.6387C348.849 82.411 349.674 82.4968 350.376 82.8773L421.088 121.296L437.979 178.108Z" fill="#407BFF"/>
<g opacity="0.5">
<path d="M437.979 178.108L376.32 291.6C375.938 292.3 375.293 292.82 374.527 293.046C373.761 293.272 372.937 293.184 372.236 292.803L267.3 235.792C266.598 235.412 266.075 234.767 265.847 234.001C265.62 233.235 265.705 232.41 266.086 231.708L346.292 84.0917C346.672 83.3891 347.316 82.8665 348.083 82.6387C348.849 82.411 349.674 82.4968 350.376 82.8773L421.088 121.296L437.979 178.108Z" fill="white"/>
</g>
<path d="M401.293 202.452L327.104 162.432C326.83 162.283 326.53 162.189 326.22 162.157C325.91 162.124 325.597 162.154 325.298 162.243C324.999 162.332 324.721 162.48 324.48 162.677C324.239 162.874 324.039 163.117 323.892 163.392L323.527 164.065C323.378 164.34 323.284 164.641 323.252 164.952C323.219 165.263 323.249 165.577 323.338 165.877C323.427 166.176 323.575 166.455 323.772 166.698C323.969 166.94 324.212 167.141 324.488 167.289L398.676 207.309C399.23 207.607 399.879 207.673 400.481 207.493C401.084 207.313 401.59 206.902 401.889 206.349L402.253 205.664C402.402 205.39 402.496 205.09 402.528 204.78C402.561 204.47 402.531 204.157 402.442 203.858C402.353 203.559 402.205 203.281 402.008 203.04C401.811 202.799 401.568 202.599 401.293 202.452Z" fill="#407BFF"/>
<path d="M390.567 222.317L316.376 182.286C315.223 181.663 313.783 182.094 313.16 183.248L312.793 183.928C312.171 185.081 312.601 186.521 313.755 187.144L387.946 227.175C389.099 227.797 390.539 227.367 391.162 226.213L391.529 225.533C392.151 224.379 391.721 222.939 390.567 222.317Z" fill="#407BFF"/>
<path d="M379.859 242.185L305.668 202.154C304.515 201.531 303.075 201.962 302.452 203.115L302.085 203.795C301.463 204.949 301.893 206.389 303.047 207.012L377.238 247.043C378.391 247.665 379.831 247.234 380.454 246.081L380.821 245.401C381.443 244.247 381.013 242.807 379.859 242.185Z" fill="#407BFF"/>
<path d="M421.187 121.252L402.585 155.476C402.395 155.823 402.276 156.204 402.234 156.597C402.193 156.99 402.23 157.388 402.342 157.766C402.455 158.145 402.642 158.498 402.892 158.804C403.142 159.11 403.45 159.364 403.799 159.55L437.924 178.097L421.187 121.252Z" fill="#407BFF"/>
<path opacity="0.7" d="M421.187 121.252L402.585 155.476C402.395 155.823 402.276 156.204 402.234 156.597C402.193 156.99 402.23 157.388 402.342 157.766C402.455 158.145 402.642 158.498 402.892 158.804C403.142 159.11 403.45 159.364 403.799 159.55L437.924 178.097L421.187 121.252Z" fill="white"/>
<path d="M416.926 69.2208L422.114 92.2613C402.463 97.6488 384.832 117.101 372.147 135.472C366.956 143.1 362.781 151.373 359.727 160.08C359.727 160.08 399.361 124.233 421.209 122.136L420.16 160.212C420.16 160.212 442.825 116.052 486.82 99.9341C486.864 99.923 449.968 73.3829 416.926 69.2208Z" fill="#407BFF"/>
<path d="M278.992 394.051L286.863 387.526L267.014 368.692L258.546 375.923L278.992 394.051Z" fill="#CB7A63"/>
<path d="M293.245 385.009C292.346 384.75 291.387 384.796 290.518 385.141C289.988 385.296 289.414 385.484 288.95 385.66C288.486 385.837 288.21 385.947 287.912 386.069L287.04 386.455C286.989 386.468 286.943 386.498 286.911 386.54C286.879 386.582 286.862 386.634 286.864 386.687C286.856 386.705 286.853 386.723 286.853 386.742C286.853 386.761 286.856 386.78 286.864 386.797C286.9 386.852 286.955 386.891 287.018 386.908C288.136 387.202 289.278 387.398 290.43 387.493C290.996 387.566 291.571 387.521 292.119 387.36H292.196C292.511 387.256 292.815 387.119 293.101 386.952C293.282 386.807 293.425 386.619 293.515 386.405C293.606 386.191 293.642 385.958 293.62 385.727C293.622 385.585 293.589 385.445 293.523 385.32C293.458 385.195 293.362 385.088 293.245 385.009ZM293.134 385.738C293.161 385.894 293.144 386.055 293.083 386.201C293.022 386.348 292.922 386.474 292.792 386.566C292.528 386.756 292.221 386.877 291.898 386.919C291.454 386.999 291.001 387.025 290.551 386.996C289.846 386.957 289.146 386.868 288.453 386.731L287.934 386.632C288.876 386.182 289.865 385.838 290.882 385.605C291.434 385.465 291.995 385.362 292.56 385.296C292.722 385.288 292.883 385.326 293.024 385.406C293.074 385.444 293.111 385.496 293.13 385.555C293.15 385.614 293.151 385.678 293.134 385.738Z" fill="#407BFF"/>
<path d="M289.635 380.88C289.382 380.925 289.142 381.021 288.927 381.161C288.713 381.301 288.529 381.484 288.387 381.697C288.297 381.829 288.219 381.97 288.155 382.116C287.736 383.399 287.652 384.767 287.912 386.091C287.917 386.109 287.917 386.128 287.912 386.146C287.921 386.189 287.941 386.229 287.97 386.262C287.999 386.295 288.037 386.319 288.078 386.334C288.102 386.345 288.129 386.35 288.155 386.35C288.182 386.35 288.208 386.345 288.233 386.334C288.252 386.333 288.272 386.328 288.289 386.319C288.306 386.309 288.321 386.295 288.332 386.279C288.551 386.093 288.754 385.89 288.939 385.671C289.288 385.257 289.602 384.814 289.878 384.347C290.562 383.243 291.048 381.973 290.75 381.322C290.639 381.035 290.352 380.748 289.635 380.88ZM290.297 381.542C290.485 381.962 290.109 382.956 289.557 383.927C289.221 384.521 288.821 385.076 288.365 385.583C288.213 384.582 288.265 383.56 288.52 382.58C288.584 382.368 288.68 382.167 288.807 381.984C288.99 381.716 289.258 381.517 289.568 381.421H289.723C290.187 381.288 290.275 381.465 290.352 381.52L290.297 381.542Z" fill="#407BFF"/>
<path d="M285.837 387.062L275.901 392.052C275.712 392.141 275.562 392.295 275.477 392.485C275.392 392.676 275.378 392.89 275.437 393.09L278.352 402.342C278.424 402.559 278.539 402.761 278.689 402.934C278.839 403.107 279.022 403.249 279.227 403.352C279.432 403.454 279.655 403.515 279.884 403.531C280.113 403.548 280.342 403.518 280.56 403.446L280.725 403.368C297.672 397.418 302.872 393.201 304.638 392.24C309.683 389.491 306.846 385.914 304.969 386.356C296.513 388.376 293.675 387.857 290.021 386.919C288.635 386.628 287.2 386.677 285.837 387.062Z" fill="#263238"/>
<path opacity="0.2" d="M267.025 368.703L277.071 377.612L268.592 384.832L258.546 375.923L267.025 368.703Z" fill="black"/>
<path d="M263.889 384.766L276.53 373.108L273.748 368.228L259.131 380.781L263.889 384.766Z" fill="#407BFF"/>
<path opacity="0.5" d="M263.889 384.766L276.53 373.108L273.748 368.228L259.131 380.781L263.889 384.766Z" fill="white"/>
<path d="M271.761 369.939L270.061 371.397L267.533 373.605L266.064 374.852L261.648 378.672L260.798 379.39C260.798 379.39 242.792 369.244 232.768 360.622C225.912 354.693 225.294 352.474 224.565 353.026C214.883 360.401 186.223 385.859 169.983 399.096C169.453 399.162 168.879 399.206 168.393 399.251C159.716 399.88 152.937 398.93 147.594 396.91C147.594 389.867 153.567 373.417 154.063 371.827C154.063 371.827 178.031 348.014 216.87 327.877C217.251 327.684 217.641 327.51 218.04 327.358C218.537 327.127 219.046 326.92 219.564 326.74C221.465 325.983 223.473 325.528 225.514 325.393C227.232 325.324 228.946 325.594 230.56 326.188C231.486 326.517 232.387 326.915 233.253 327.38C234.013 327.773 234.75 328.208 235.461 328.683C236.665 329.445 237.824 330.295 238.917 331.134C241.401 333.055 260.158 357.221 270.237 368.372C270.778 368.891 271.286 369.443 271.761 369.939Z" fill="#407BFF"/>
<g opacity="0.1">
<path d="M271.761 369.939L270.061 371.397L267.533 373.605L266.064 374.852L261.648 378.672L260.798 379.39C260.798 379.39 242.792 369.244 232.768 360.622C225.912 354.693 225.294 352.474 224.565 353.026C214.883 360.401 186.223 385.859 169.983 399.096C169.453 399.162 168.879 399.206 168.393 399.251C159.716 399.88 152.937 398.93 147.594 396.91C147.594 389.867 153.567 373.417 154.063 371.827C154.063 371.827 178.031 348.014 216.87 327.877C217.251 327.684 217.641 327.51 218.04 327.358C218.537 327.127 219.046 326.92 219.564 326.74C221.465 325.983 223.473 325.528 225.514 325.393C227.232 325.324 228.946 325.594 230.56 326.188C231.486 326.517 232.387 326.915 233.253 327.38C234.013 327.773 234.75 328.208 235.461 328.683C236.665 329.445 237.824 330.295 238.917 331.134C241.401 333.055 260.158 357.221 270.237 368.372C270.778 368.891 271.286 369.443 271.761 369.939Z" fill="black"/>
</g>
<path d="M143.862 268.272C145.386 275.139 146.976 285.174 142.25 289.899C148.117 300.207 155.156 309.802 163.226 318.493C173.571 300.509 163.767 289.392 163.767 289.392C156.039 287.736 156.139 284.611 157.353 279.224L143.862 268.272Z" fill="#CB7A63"/>
<path d="M137.459 290.738C138.022 288.882 139.187 287.266 140.771 286.146C142.328 284.964 158.435 284.788 162.575 286.146C165.017 286.919 167.093 288.556 168.415 290.749L137.459 290.738Z" fill="#407BFF"/>
<path d="M211.615 318.118L215.766 316.219L215.976 322.997C214.778 324.042 213.397 324.855 211.902 325.393C211.435 325.531 210.94 325.543 210.467 325.429C209.993 325.315 209.559 325.078 209.206 324.742C208.853 324.406 208.595 323.983 208.458 323.516C208.321 323.049 208.309 322.554 208.424 322.081C208.629 321.225 209.022 320.426 209.574 319.74C210.126 319.055 210.823 318.501 211.615 318.118Z" fill="#CB7A63"/>
<path d="M221.087 318.129L220.866 320.624C220.836 320.998 220.686 321.353 220.44 321.637C220.194 321.921 219.864 322.119 219.497 322.202L215.942 322.997L215.733 316.219L219.343 316.274C219.57 316.27 219.796 316.311 220.008 316.395C220.219 316.479 220.412 316.604 220.574 316.763C220.737 316.923 220.866 317.113 220.954 317.323C221.042 317.532 221.087 317.758 221.087 317.985V318.129Z" fill="#CB7A63"/>
<path d="M158.833 337.393C165.43 340.784 172.919 342.038 180.261 340.981C189.093 339.491 204.549 330.604 211.25 325.525L209.042 322.213C205.73 322.931 178.362 336.819 160.709 324.256C157.397 321.915 144.492 312.277 139.932 312.476C132.524 312.807 133.165 320.568 136.344 323.803C140.02 327.502 153.721 334.876 158.833 337.393Z" fill="#CB7A63"/>
<g opacity="0.2">
<path d="M220.866 320.624C220.839 320.996 220.692 321.35 220.448 321.633C220.203 321.916 219.873 322.111 219.508 322.191L215.976 322.997C214.778 324.042 213.397 324.854 211.902 325.393C211.691 325.462 211.472 325.499 211.25 325.503C204.538 330.604 189.17 339.48 180.272 340.959C172.934 342.011 165.45 340.757 158.855 337.371C153.743 334.854 140.02 327.435 136.3 323.704C133.12 320.469 132.48 312.664 139.888 312.377C144.447 312.178 157.364 321.816 160.665 324.156C177.512 336.135 203.147 324.057 208.391 322.291C208.386 322.21 208.386 322.129 208.391 322.048C208.583 321.196 208.96 320.397 209.495 319.707C210.047 319.024 210.745 318.473 211.537 318.096L215.655 316.208L219.243 316.263C219.47 316.26 219.695 316.302 219.905 316.387C220.115 316.471 220.306 316.597 220.468 316.756C220.629 316.915 220.757 317.105 220.844 317.314C220.932 317.523 220.977 317.747 220.977 317.974V318.129L220.866 320.624Z" fill="black"/>
<path d="M215.765 316.219L215.733 316.23V316.219H215.765Z" fill="black"/>
</g>
<path d="M181.983 301.834C191.356 322.489 169.619 328.396 179.577 362.267L132.326 363.371C132.635 345.221 139.093 349.118 130.581 314.993C129.864 312.101 128.671 303.81 131.751 296.225C132.929 293.271 135.094 290.817 137.879 289.281C141.367 287.404 156.735 288.873 163.745 289.347C171.341 288.321 180.592 299.25 181.983 301.834Z" fill="#407BFF"/>
<path opacity="0.5" d="M181.983 301.834C191.356 322.489 169.619 328.396 179.577 362.267L132.326 363.371C132.635 345.221 139.093 349.118 130.581 314.993C129.864 312.101 128.671 303.81 131.751 296.225C132.929 293.271 135.094 290.817 137.879 289.281C141.367 287.404 156.735 288.873 163.745 289.347C171.341 288.321 180.592 299.25 181.983 301.834Z" fill="white"/>
<path d="M172.953 260.853C172.82 261.758 173.185 262.498 173.748 262.575C174.311 262.653 174.852 262.023 175.017 261.151C175.183 260.279 174.774 259.517 174.211 259.429C173.648 259.341 173.074 259.992 172.953 260.853Z" fill="#263238"/>
<path d="M173.958 259.44L176.166 259.142C176.166 259.142 174.819 260.621 173.958 259.44Z" fill="#263238"/>
<path d="M173.096 262.045C173.578 264.134 174.351 266.145 175.393 268.018C174.904 268.271 174.367 268.414 173.818 268.437C173.268 268.46 172.721 268.362 172.213 268.151L173.096 262.045Z" fill="#A02724"/>
<path d="M176.077 254.781C176.161 254.75 176.236 254.697 176.292 254.627C176.348 254.557 176.385 254.473 176.397 254.384C176.416 254.248 176.382 254.11 176.302 253.999C176.222 253.888 176.102 253.812 175.967 253.788C175.161 253.646 174.333 253.701 173.553 253.947C172.773 254.193 172.063 254.623 171.484 255.201C171.425 255.244 171.376 255.299 171.34 255.362C171.304 255.425 171.281 255.495 171.274 255.568C171.267 255.64 171.275 255.714 171.298 255.783C171.32 255.852 171.358 255.916 171.407 255.97C171.456 256.024 171.516 256.066 171.583 256.096C171.65 256.125 171.722 256.139 171.795 256.139C171.868 256.138 171.94 256.122 172.006 256.092C172.073 256.061 172.132 256.017 172.18 255.962L172.246 255.885C172.712 255.433 173.277 255.098 173.897 254.906C174.516 254.714 175.173 254.671 175.812 254.781C175.899 254.804 175.99 254.804 176.077 254.781Z" fill="#263238"/>
<path d="M144.359 253.699C143.465 264.463 142.858 269.001 147.439 275.26C154.35 284.666 167.786 283.43 171.849 273.152C175.547 263.889 176.386 247.848 166.572 242.096C164.905 241.11 163.06 240.461 161.142 240.189C159.225 239.916 157.273 240.025 155.397 240.508C153.521 240.991 151.759 241.839 150.212 243.004C148.665 244.168 147.362 245.627 146.379 247.296C145.217 249.244 144.525 251.437 144.359 253.699Z" fill="#CB7A63"/>
<path d="M172.103 272.5C171.282 271.795 170.665 270.885 170.314 269.862C170.305 269.805 170.315 269.747 170.343 269.697C170.371 269.647 170.415 269.607 170.469 269.586C170.524 269.572 170.583 269.581 170.632 269.61C170.682 269.638 170.718 269.685 170.734 269.74C171.058 270.619 171.584 271.409 172.268 272.048L172.103 272.5Z" fill="#263238"/>
<path d="M136.686 239.712C132.59 245.232 130.725 246.711 135.803 261.516C137.845 267.466 143.774 275.349 146.655 276.066C151.822 277.369 156.845 273.748 160.72 270.094C164.247 267.026 167.201 263.355 169.442 259.252C171.517 255.068 172.279 250.045 170.546 245.706C168.691 240.992 162.145 236.786 157.243 235.77C151.502 234.534 140.098 235.086 136.686 239.712Z" fill="#263238"/>
<path d="M168.912 260.169C168.912 260.169 170.204 262.377 168.57 264.044V261.096L168.912 260.169Z" fill="#263238"/>
<path d="M168.912 260.169C168.912 260.169 169.387 263.569 166.539 264.839L168.062 261.173L168.912 260.169Z" fill="#263238"/>
<path d="M149.901 274.819C149.901 274.819 146.766 276.243 147.219 279.323L149.504 276.066L149.901 274.819Z" fill="#263238"/>
<path d="M150.023 274.896C150.023 274.896 147.638 277.369 149.206 280.074L150.122 276.199L150.023 274.896Z" fill="#263238"/>
<path d="M173.174 255.72C174.338 254.612 175.369 253.37 176.243 252.021C177.137 250.667 177.528 249.041 177.347 247.428C177.124 246.411 176.681 245.456 176.047 244.63C175.414 243.803 174.606 243.127 173.682 242.648C171.835 241.696 169.855 241.03 167.808 240.672C166.839 240.324 165.774 240.355 164.827 240.76C164.433 241.052 164.124 241.442 163.93 241.892C163.736 242.342 163.665 242.835 163.723 243.322C163.829 244.301 164.098 245.257 164.518 246.148C165.864 249.722 166.855 253.42 167.477 257.188C167.819 259.087 167.565 260.356 169.442 259.617C170.601 259.186 172.224 256.724 173.174 255.72Z" fill="#263238"/>
<path d="M158.314 261.041C158.199 263.531 159.077 265.964 160.753 267.808C162.961 270.237 165.854 268.647 166.671 265.6C167.411 262.884 167.135 258.347 164.187 257.044C161.239 255.742 158.468 258.005 158.314 261.041Z" fill="#CB7A63"/>
<path d="M283.529 399.008L292.052 390.706L275.547 369.961L265.247 376.044L283.529 399.008Z" fill="#CB7A63"/>
<path d="M300.752 388.144C299.813 387.813 297.87 388.873 296.391 389.811C296.016 390.043 295.684 390.275 295.397 390.474L295.254 390.584C294.923 390.816 294.68 390.993 294.592 391.07C294.541 391.094 294.5 391.134 294.476 391.184C294.452 391.235 294.446 391.292 294.459 391.346C294.475 391.401 294.508 391.451 294.554 391.486C294.6 391.522 294.655 391.542 294.713 391.545C295.73 391.589 296.748 391.555 297.76 391.445L298.433 391.368C299.164 391.313 299.868 391.069 300.476 390.661C300.698 390.526 300.905 390.366 301.094 390.187C301.254 389.995 301.363 389.766 301.411 389.521C301.459 389.276 301.445 389.023 301.37 388.785C301.326 388.636 301.246 388.501 301.139 388.39C301.031 388.278 300.898 388.194 300.752 388.144ZM300.818 388.939C300.873 389.1 300.884 389.272 300.851 389.439C300.818 389.606 300.742 389.761 300.63 389.889C300.17 390.334 299.584 390.627 298.952 390.728C298.205 390.899 297.444 390.998 296.678 391.026C296.325 391.026 295.957 391.026 295.574 391.026L295.949 390.75C296.032 390.68 296.121 390.617 296.214 390.562C297.401 389.726 298.707 389.074 300.089 388.63C300.259 388.581 300.439 388.581 300.608 388.63C300.669 388.657 300.72 388.7 300.757 388.755C300.794 388.809 300.815 388.873 300.818 388.939Z" fill="#407BFF"/>
<path d="M296.027 384.623C295.776 384.719 295.548 384.867 295.357 385.057C295.167 385.248 295.019 385.476 294.923 385.727C294.216 387.416 295.254 390.043 295.419 390.452C295.439 390.496 295.469 390.535 295.508 390.564C295.546 390.593 295.592 390.612 295.64 390.617C295.695 390.628 295.751 390.628 295.806 390.617C295.844 390.604 295.876 390.576 295.894 390.54C296.068 390.302 296.223 390.051 296.358 389.789C297.175 388.255 297.937 385.693 297.274 384.81C297.109 384.567 296.744 384.325 296.027 384.623ZM295.751 389.833C295.233 388.61 295.11 387.255 295.397 385.958C295.528 385.631 295.77 385.361 296.082 385.197L296.225 385.13C296.7 384.943 296.822 385.13 296.866 385.13C297.351 385.804 296.612 388.42 295.751 389.833Z" fill="#407BFF"/>
<path opacity="0.2" d="M274.686 368.692L282.448 378.628L271.948 384.49L264.066 374.808L274.686 368.692Z" fill="black"/>
<path d="M131.895 359.783L130.791 364.077C130.625 364.408 131.034 364.728 131.575 364.717L180.228 363.613C180.659 363.613 181.001 363.382 181.023 363.106L179.809 358.612C179.809 358.325 179.455 358.082 178.992 358.093L132.624 359.462C132.486 359.456 132.348 359.481 132.222 359.537C132.095 359.593 131.983 359.677 131.895 359.783Z" fill="#263238"/>
<path d="M175.194 364.077L173.913 364.221C173.659 364.221 173.449 364.143 173.449 363.978V358.458C173.449 358.292 173.659 358.138 173.902 358.116L175.183 357.961C175.437 357.961 175.646 358.049 175.646 358.215V363.735C175.646 363.9 175.448 364.055 175.194 364.077Z" fill="#407BFF"/>
<path d="M157.773 364.32L156.492 364.452C156.249 364.452 156.04 364.375 156.04 364.21V358.69C156.04 358.535 156.249 358.38 156.503 358.347L157.773 358.204C158.027 358.204 158.237 358.281 158.237 358.447V363.967C158.237 364.143 158.027 364.32 157.773 364.32Z" fill="#407BFF"/>
<path d="M157.773 364.32L156.492 364.452C156.249 364.452 156.04 364.375 156.04 364.21V358.69C156.04 358.535 156.249 358.38 156.503 358.347L157.773 358.204C158.027 358.204 158.237 358.281 158.237 358.447V363.967C158.237 364.143 158.027 364.32 157.773 364.32Z" fill="#407BFF"/>
<path d="M281.211 373.152L279.058 374.366L275.349 376.464L272.037 378.33L268.625 380.251L267.312 380.99L266.495 380.383C266.296 380.251 266.064 380.085 265.799 379.875C264.982 379.268 263.856 378.429 262.487 377.38C255.631 371.949 243.41 361.284 239.767 351.58C237.415 354.384 234.6 357.906 231.376 361.792C217.488 378.54 195.938 402.176 170.016 405.256L168.426 405.422C159.76 406.162 152.97 405.3 147.616 403.346C134.158 398.412 130.405 386.588 131.321 376.53C131.409 371.816 132.326 363.426 132.326 363.426H181.431C188.342 355.024 202.231 341.865 216.417 333.618C216.748 333.408 217.091 333.209 217.433 333.033C217.775 332.856 218.283 332.547 218.702 332.315C222.984 329.898 227.559 328.042 232.315 326.795C233.286 326.563 234.247 326.364 235.196 326.221C236.169 326.075 237.15 325.983 238.133 325.945C244.856 325.647 250.696 328.153 254.693 334.854L280.471 372.048L281.211 373.152Z" fill="#407BFF"/>
<path d="M254.715 322.125L200.465 324.366L202.054 289.844L256.305 287.603L254.715 322.125Z" fill="#407BFF"/>
<path d="M254.086 324.841L200.619 327.049C200.268 327.072 199.915 327.019 199.586 326.895C199.256 326.77 198.958 326.576 198.71 326.326C198.462 326.076 198.27 325.775 198.148 325.445C198.026 325.114 197.977 324.762 198.003 324.41L199.57 290.109C199.617 289.361 199.936 288.657 200.467 288.128C200.998 287.599 201.704 287.283 202.452 287.239L255.918 285.031C256.269 285.009 256.621 285.063 256.95 285.189C257.278 285.314 257.576 285.508 257.824 285.758C258.071 286.008 258.263 286.307 258.386 286.637C258.508 286.966 258.559 287.318 258.535 287.669L256.956 321.971C256.914 322.718 256.598 323.424 256.069 323.953C255.539 324.483 254.833 324.799 254.086 324.841Z" fill="#263238"/>
<path d="M254.715 322.125L200.465 324.366L202.054 289.844L256.305 287.603L254.715 322.125Z" fill="#407BFF"/>
<path opacity="0.9" d="M254.715 322.125L200.465 324.366L202.054 289.844L256.305 287.603L254.715 322.125Z" fill="white"/>
<path opacity="0.1" d="M221.308 286.477L212.344 326.552L215.909 326.409L224.752 286.333L221.308 286.477Z" fill="white"/>
<path opacity="0.1" d="M226.806 286.245L217.842 326.32L224.918 326.033L233.761 285.958L226.806 286.245Z" fill="white"/>
<path d="M237.106 325.272L255.168 324.764C255.477 326.861 254.582 327.645 253.434 327.678L247.66 327.822L243.796 327.91L237.802 328.076L200.608 329.18L200.31 326.563L237.106 325.272Z" fill="#407BFF"/>
<path d="M237.106 325.272L255.168 324.764C255.477 326.861 254.583 327.645 253.434 327.678L247.661 327.822L243.797 327.91L237.802 328.076L191.765 329.489C191.506 329.499 191.251 329.434 191.029 329.3C190.807 329.167 190.629 328.971 190.517 328.738C190.422 328.538 190.378 328.317 190.389 328.096C190.4 327.875 190.466 327.66 190.581 327.47C190.696 327.281 190.857 327.123 191.048 327.011C191.239 326.899 191.455 326.836 191.677 326.828L237.106 325.272Z" fill="#407BFF"/>
<path opacity="0.2" d="M237.106 325.272L255.168 324.764C255.477 326.861 254.583 327.645 253.434 327.678L247.661 327.822L243.797 327.91L237.802 328.076L191.765 329.489C191.506 329.499 191.251 329.434 191.029 329.3C190.807 329.167 190.629 328.971 190.517 328.738C190.422 328.538 190.378 328.317 190.389 328.096C190.4 327.875 190.466 327.66 190.581 327.47C190.696 327.281 190.857 327.123 191.048 327.011C191.239 326.899 191.455 326.836 191.677 326.828L237.106 325.272Z" fill="black"/>
<path opacity="0.2" d="M255.168 324.764L255.278 325.492C255.321 325.761 255.305 326.037 255.233 326.299C255.16 326.562 255.032 326.806 254.858 327.015C254.683 327.224 254.466 327.394 254.22 327.512C253.975 327.63 253.707 327.694 253.434 327.7L247.66 327.844L236.929 328.23L237.106 325.294L255.168 324.764Z" fill="black"/>
<path opacity="0.2" d="M161.615 302.849C161.615 302.849 159.064 308.049 166.428 321.783L169.508 327.38C170.524 329.224 177.236 325.459 179.29 322.004C179.29 322.004 166.373 314.254 161.615 302.849Z" fill="black"/>
<path d="M224.112 318.857L229.246 317.345L228.429 325.272C228.429 325.272 221.264 330.063 218.78 325.481L219.784 322.931C220.155 321.971 220.736 321.107 221.485 320.402C222.234 319.697 223.132 319.169 224.112 318.857Z" fill="#CB7A63"/>
<path d="M235.152 320.458L234.512 323.317C234.418 323.748 234.189 324.138 233.857 324.428C233.525 324.719 233.108 324.894 232.668 324.929L228.396 325.272L229.224 317.334L233.419 317.996C233.957 318.068 234.445 318.349 234.776 318.78C235.107 319.21 235.254 319.754 235.185 320.292L235.152 320.458Z" fill="#CB7A63"/>
<path d="M181.321 332.304C184.909 337.162 189.943 341.224 195.861 342.384C202.838 343.741 216.263 333.872 222.555 327.491C222.246 324.797 222.423 323.34 219.74 322.964C219.74 322.964 212.807 328.043 199.747 331.09C195.518 332.072 192.703 327.778 189.027 321.474C187.194 318.349 181.299 305.499 179.014 302.64C175.415 298.047 165.192 301.337 169.254 312.388C170.954 317.003 178.395 328.308 181.321 332.304Z" fill="#CB7A63"/>
<path d="M177.501 295.088C184.755 301.712 188.287 313.547 188.287 313.547L171.341 323.88C171.341 323.88 158.976 306.481 161.184 300.42C162.929 295.717 166.163 292.626 170.414 292.361C171.717 292.318 173.017 292.537 174.234 293.005C175.452 293.474 176.563 294.182 177.501 295.088Z" fill="#407BFF"/>
<path d="M138.618 364.971H137.338C137.084 364.971 136.874 364.85 136.896 364.684L137.371 359.164C137.371 358.999 137.603 358.866 137.857 358.855H139.137C139.391 358.855 139.601 358.988 139.579 359.142L139.104 364.662C139.078 364.766 139.013 364.856 138.923 364.913C138.832 364.971 138.723 364.992 138.618 364.971Z" fill="#407BFF"/>
<path d="M265.214 383.342L281.73 375.084L280.317 369.211L261.482 377.8L265.214 383.342Z" fill="#407BFF"/>
<path opacity="0.5" d="M265.214 383.342L281.73 375.084L280.317 369.211L261.482 377.8L265.214 383.342Z" fill="white"/>
<path d="M291.39 389.8L279.997 393.245C279.78 393.304 279.591 393.439 279.466 393.626C279.34 393.812 279.286 394.037 279.312 394.26L280.692 404.594C280.731 404.837 280.818 405.07 280.947 405.279C281.077 405.488 281.247 405.669 281.447 405.812C281.648 405.955 281.874 406.056 282.114 406.111C282.354 406.165 282.603 406.171 282.845 406.128H283.044C302.077 402.96 308.358 399.504 310.401 398.776C316.252 396.8 313.912 392.494 311.836 392.616C302.518 393.19 299.615 392.108 295.916 390.408C294.481 389.833 292.926 389.625 291.39 389.8Z" fill="#263238"/>
<path d="M138.188 253.578C134.765 254.119 131.376 251.491 130.305 248.201C129.863 246.526 129.776 244.778 130.047 243.067C130.319 241.356 130.945 239.721 131.884 238.265C133.176 236.057 141.643 230.824 144.779 236.72C151.027 248.4 138.188 253.578 138.188 253.578Z" fill="#263238"/>
<path d="M254.229 299.438L220.833 300.851L220.988 297.539L254.384 296.126L254.229 299.438Z" fill="#407BFF"/>
<g opacity="0.7">
<path d="M254.229 299.438L220.833 300.851L220.988 297.539L254.384 296.126L254.229 299.438Z" fill="white"/>
</g>
<path d="M254.031 304.031L220.635 305.455L220.778 302.143L254.174 300.719L254.031 304.031Z" fill="#407BFF"/>
<g opacity="0.7">
<path d="M254.031 304.031L220.635 305.455L220.778 302.143L254.174 300.719L254.031 304.031Z" fill="white"/>
</g>
<path d="M253.821 308.634L220.425 310.058L220.579 306.735L253.964 305.322L253.821 308.634Z" fill="#407BFF"/>
<g opacity="0.7">
<path d="M253.821 308.634L220.425 310.058L220.579 306.735L253.964 305.322L253.821 308.634Z" fill="white"/>
</g>
<path d="M253.611 313.227L220.215 314.651L220.369 311.339L253.765 309.915L253.611 313.227Z" fill="#407BFF"/>
<g opacity="0.7">
<path d="M253.611 313.227L220.215 314.651L220.369 311.339L253.765 309.915L253.611 313.227Z" fill="white"/>
</g>
<path d="M253.412 317.831L220.016 319.255L220.16 315.943L253.556 314.519L253.412 317.831Z" fill="#407BFF"/>
<g opacity="0.7">
<path d="M253.412 317.831L220.016 319.255L220.16 315.943L253.556 314.519L253.412 317.831Z" fill="white"/>
</g>
<path d="M207.329 302.723L204.649 302.838L204.696 303.941L207.377 303.826L207.329 302.723Z" fill="#407BFF"/>
<g opacity="0.5">
<path d="M207.329 302.723L204.649 302.838L204.696 303.941L207.377 303.826L207.329 302.723Z" fill="white"/>
</g>
<path d="M207.201 305.915L204.521 306.031L204.569 307.134L207.249 307.018L207.201 305.915Z" fill="#407BFF"/>
<g opacity="0.5">
<path d="M207.201 305.915L204.521 306.031L204.569 307.134L207.249 307.018L207.201 305.915Z" fill="white"/>
</g>
<path d="M206.394 309.966L203.711 310.073L203.755 311.177L206.438 311.07L206.394 309.966Z" fill="#407BFF"/>
<g opacity="0.5">
<path d="M206.394 309.966L203.711 310.073L203.755 311.177L206.438 311.07L206.394 309.966Z" fill="white"/>
</g>
<path d="M206.956 312.279L204.276 312.395L204.323 313.498L207.004 313.382L206.956 312.279Z" fill="#407BFF"/>
<g opacity="0.5">
<path d="M206.956 312.279L204.276 312.395L204.323 313.498L207.004 313.382L206.956 312.279Z" fill="white"/>
</g>
<path d="M206.119 316.335L203.436 316.442L203.48 317.546L206.163 317.439L206.119 316.335Z" fill="#407BFF"/>
<g opacity="0.5">
<path d="M204.207 316.671L204.306 315.567L206.978 315.446L206.879 316.561L204.207 316.671Z" fill="white"/>
</g>
<path d="M206.706 318.648L204.025 318.761L204.072 319.864L206.752 319.751L206.706 318.648Z" fill="#407BFF"/>
<g opacity="0.5">
<path d="M206.706 318.648L204.025 318.761L204.072 319.864L206.752 319.751L206.706 318.648Z" fill="white"/>
</g>
<path d="M210.135 299.67L204.593 301.734L204.648 300.277L207.718 299.78L204.682 299.57L204.737 298.113L210.135 299.67Z" fill="#407BFF"/>
<path d="M243.973 294.404L220.833 295.386L220.944 293.09L244.083 292.107L243.973 294.404Z" fill="#407BFF"/>
<g opacity="0.7">
<path d="M243.973 294.404L220.833 295.386L220.944 293.09L244.083 292.107L243.973 294.404Z" fill="white"/>
</g>
<path d="M212.752 295.585L209.363 295.74L210.732 294.867L211.107 295.21L211.515 294.856L212.752 295.585Z" fill="#407BFF"/>
<path d="M210.599 294.757L209.23 295.64L209.33 293.609L210.599 294.757Z" fill="#407BFF"/>
<path d="M212.973 293.554L212.862 295.464L211.615 294.735L212.973 293.554Z" fill="#407BFF"/>
<path d="M211.144 294.401L211.068 294.481L211.076 294.488L211.152 294.408L211.144 294.401Z" fill="white"/>
<path d="M211.088 294.413L211.08 294.421L211.156 294.501L211.164 294.493L211.088 294.413Z" fill="white"/>
<path d="M212.973 293.355L211.515 294.68L211.107 295.044L210.732 294.691L209.462 293.543L209.363 293.454L212.973 293.355Z" fill="#407BFF"/>
<path d="M207.336 293.738L204.655 293.852L204.669 294.183L207.35 294.069L207.336 293.738Z" fill="#407BFF"/>
<path d="M207.338 294.576L204.658 294.69L204.672 295.021L207.352 294.907L207.338 294.576Z" fill="#407BFF"/>
<path d="M207.341 295.437L204.661 295.55L204.675 295.881L207.355 295.767L207.341 295.437Z" fill="#407BFF"/>
<path d="M149.603 320.933L159.616 435.396H143.52L132.745 312.222H140.142C142.521 312.233 144.811 313.132 146.561 314.743C148.312 316.355 149.397 318.562 149.603 320.933Z" fill="#407BFF"/>
<path opacity="0.2" d="M149.703 321.971L159.639 435.396H143.52L132.745 312.222H139.104C141.768 312.234 144.331 313.24 146.292 315.043C148.252 316.847 149.469 319.317 149.703 321.971Z" fill="black"/>
<path d="M139.104 319.685L149.228 435.396H53.1797L43.2437 321.109C43.1442 319.981 43.2806 318.843 43.6443 317.77C44.0079 316.697 44.5909 315.711 45.3561 314.875C46.1213 314.039 47.052 313.372 48.0891 312.915C49.1262 312.458 50.247 312.222 51.3802 312.222H131.067C133.094 312.248 135.039 313.025 136.524 314.405C138.009 315.784 138.929 317.666 139.104 319.685Z" fill="#407BFF"/>
<path opacity="0.2" d="M139.226 320.944L149.239 435.396H53.1908L43.2879 322.611C43.1716 321.292 43.3308 319.963 43.7556 318.709C44.1803 317.455 44.8613 316.302 45.7551 315.325C46.649 314.348 47.7363 313.568 48.948 313.034C50.1596 312.5 51.4692 312.223 52.7933 312.222H129.72C132.108 312.224 134.409 313.121 136.168 314.735C137.928 316.35 139.018 318.565 139.226 320.944Z" fill="white"/>
<path d="M308.226 435.396H53.5883L50.7842 403.656H295.21C297.989 403.706 300.654 404.773 302.701 406.654C304.747 408.536 306.033 411.102 306.316 413.868L308.226 435.396Z" fill="#407BFF"/>
<path opacity="0.2" d="M308.226 435.396H53.5883L50.7842 403.656H295.21C297.989 403.706 300.654 404.773 302.701 406.654C304.747 408.536 306.033 411.102 306.316 413.868L308.226 435.396Z" fill="white"/>
<path d="M319.906 447.551H50.5964C48.9196 447.548 47.3123 446.88 46.1266 445.695C44.9408 444.509 44.2734 442.901 44.2705 441.225C44.2705 439.547 44.937 437.938 46.1233 436.752C47.3097 435.565 48.9187 434.899 50.5964 434.899H319.906C321.584 434.899 323.193 435.565 324.379 436.752C325.566 437.938 326.232 439.547 326.232 441.225C326.229 442.901 325.562 444.509 324.376 445.695C323.19 446.88 321.583 447.548 319.906 447.551Z" fill="#407BFF"/>
<path opacity="0.2" d="M319.906 447.551H163.569C161.891 447.551 160.282 446.884 159.096 445.698C157.909 444.511 157.243 442.902 157.243 441.225C157.241 440.394 157.404 439.57 157.721 438.802C158.039 438.034 158.505 437.336 159.092 436.748C159.68 436.161 160.378 435.695 161.146 435.377C161.914 435.06 162.737 434.897 163.569 434.899H319.906C321.584 434.899 323.193 435.565 324.379 436.752C325.565 437.938 326.232 439.547 326.232 441.225C326.229 442.901 325.562 444.509 324.376 445.695C323.19 446.88 321.583 447.548 319.906 447.551Z" fill="black"/>
<path d="M54.1292 447.551L57.3197 458.403H63.7008L67.2116 447.551H54.1292Z" fill="#263238"/>
<path opacity="0.5" d="M54.1292 447.551L57.3197 458.403H63.7008L67.2116 447.551H54.1292Z" fill="white"/>
<path d="M145.573 447.551L148.764 458.403H155.145L158.667 447.551H145.573Z" fill="#263238"/>
<path opacity="0.5" d="M145.573 447.551L148.764 458.403H155.145L158.667 447.551H145.573Z" fill="white"/>
<path d="M215.567 447.551L218.758 458.403H225.139L228.65 447.551H215.567Z" fill="#263238"/>
<path opacity="0.5" d="M215.567 447.551L218.758 458.403H225.139L228.65 447.551H215.567Z" fill="white"/>
<path d="M307.011 447.551L310.202 458.403H316.583L320.094 447.551H307.011Z" fill="#263238"/>
<path opacity="0.5" d="M307.011 447.551L310.202 458.403H316.583L320.094 447.551H307.011Z" fill="white"/>
<path d="M116.903 307.917H109.914C109.768 307.917 109.628 307.858 109.524 307.755C109.42 307.651 109.362 307.511 109.362 307.365C109.362 307.218 109.42 307.078 109.524 306.974C109.628 306.871 109.768 306.813 109.914 306.813H116.903C117.048 306.815 117.187 306.875 117.29 306.977C117.393 307.08 117.452 307.219 117.455 307.365C117.455 307.511 117.396 307.651 117.293 307.755C117.189 307.858 117.049 307.917 116.903 307.917Z" fill="#407BFF"/>
<path d="M105.266 307.917H70.2366C70.0902 307.917 69.9498 307.858 69.8462 307.755C69.7427 307.651 69.6846 307.511 69.6846 307.365C69.6874 307.219 69.7465 307.08 69.8494 306.977C69.9523 306.875 70.0911 306.815 70.2366 306.813H105.266C105.412 306.815 105.551 306.875 105.654 306.977C105.757 307.08 105.816 307.219 105.818 307.365C105.818 307.511 105.76 307.651 105.657 307.755C105.553 307.858 105.413 307.917 105.266 307.917Z" fill="#407BFF"/>
<path d="M229.466 371.805C229.329 371.801 229.196 371.751 229.091 371.662C229.039 371.61 228.998 371.549 228.97 371.482C228.942 371.415 228.928 371.343 228.928 371.27C228.928 371.197 228.942 371.125 228.97 371.057C228.998 370.99 229.039 370.929 229.091 370.878L232.403 367.323C232.454 367.271 232.515 367.23 232.583 367.202C232.65 367.174 232.722 367.16 232.795 367.16C232.868 367.16 232.94 367.174 233.007 367.202C233.074 367.23 233.136 367.271 233.187 367.323C233.289 367.428 233.346 367.569 233.346 367.715C233.346 367.861 233.289 368.002 233.187 368.107L229.875 371.662C229.763 371.761 229.616 371.812 229.466 371.805Z" fill="#407BFF"/>
<path d="M199.537 400.101C199.435 400.101 199.335 400.073 199.248 400.018C199.162 399.963 199.094 399.884 199.051 399.792C199.017 399.727 198.997 399.657 198.99 399.584C198.984 399.512 198.993 399.439 199.016 399.37C199.038 399.301 199.075 399.237 199.122 399.183C199.17 399.128 199.229 399.083 199.294 399.052C209.517 393.874 225.735 374.51 225.9 374.311C225.946 374.255 226.003 374.209 226.067 374.175C226.131 374.142 226.201 374.121 226.273 374.115C226.345 374.109 226.417 374.117 226.486 374.139C226.555 374.162 226.619 374.198 226.673 374.245C226.784 374.341 226.854 374.477 226.866 374.623C226.878 374.77 226.833 374.915 226.739 375.029C226.077 375.824 210.179 394.757 199.791 400.034C199.713 400.078 199.626 400.101 199.537 400.101Z" fill="#407BFF"/>
</svg>
