<svg width="604" height="604" viewBox="0 0 604 604" fill="none" xmlns="http://www.w3.org/2000/svg">
<path d="M604 461.939H0V462.241H604V461.939Z" fill="#EBEBEB"/>
<path d="M286.296 408.062H53.0433C51.216 408.059 49.4647 407.331 48.1737 406.038C46.8828 404.745 46.1577 402.992 46.1577 401.165V73.2773C46.1736 71.4605 46.9057 69.7233 48.1949 68.4431C49.4842 67.1629 51.2264 66.4431 53.0433 66.44H286.296C288.125 66.44 289.88 67.1667 291.173 68.4603C292.467 69.7539 293.194 71.5083 293.194 73.3377V401.165C293.194 402.994 292.467 404.749 291.173 406.042C289.88 407.336 288.125 408.062 286.296 408.062ZM53.0433 66.6816C51.2961 66.6848 49.6216 67.3811 48.3873 68.6177C47.153 69.8543 46.4597 71.5301 46.4597 73.2773V401.165C46.4597 402.912 47.153 404.588 48.3873 405.824C49.6216 407.061 51.2961 407.757 53.0433 407.76H286.296C288.044 407.757 289.72 407.061 290.956 405.825C292.193 404.589 292.889 402.913 292.892 401.165V73.2773C292.889 71.529 292.193 69.8532 290.956 68.617C289.72 67.3807 288.044 66.6848 286.296 66.6816H53.0433Z" fill="#EBEBEB"/>
<path d="M547.598 408.062H314.334C312.505 408.059 310.753 407.331 309.46 406.039C308.167 404.746 307.439 402.993 307.436 401.165V73.2773C307.455 71.4594 308.19 69.7222 309.481 68.4424C310.772 67.1625 312.516 66.4431 314.334 66.44H547.598C549.413 66.4463 551.152 67.1675 552.439 68.4474C553.726 69.7272 554.456 71.4626 554.472 73.2773V401.165C554.472 402.99 553.749 404.741 552.46 406.034C551.172 407.326 549.424 408.056 547.598 408.062ZM314.334 66.6816C312.585 66.6848 310.91 67.3807 309.673 68.617C308.437 69.8532 307.741 71.529 307.738 73.2773V401.165C307.741 402.913 308.437 404.589 309.673 405.825C310.91 407.061 312.585 407.757 314.334 407.76H547.598C549.347 407.757 551.023 407.061 552.259 405.825C553.495 404.589 554.191 402.913 554.194 401.165V73.2773C554.191 71.529 553.495 69.8532 552.259 68.617C551.023 67.3807 549.347 66.6848 547.598 66.6816H314.334Z" fill="#EBEBEB"/>
<path d="M543.479 473.439H505.343V473.741H543.479V473.439Z" fill="#EBEBEB"/>
<path d="M405.091 470.166H364.731V470.468H405.091V470.166Z" fill="#EBEBEB"/>
<path d="M554.496 484.662H479.081V484.964H554.496V484.662Z" fill="#EBEBEB"/>
<path d="M86.6015 482.632H63.3717V482.934H86.6015V482.632Z" fill="#EBEBEB"/>
<path d="M133.955 482.632H97.3647V482.934H133.955V482.632Z" fill="#EBEBEB"/>
<path d="M294.921 477.534H229.013V477.836H294.921V477.534Z" fill="#EBEBEB"/>
<path d="M334.918 299.379H514.161V110.23L334.918 110.23V299.379Z" fill="#E6E6E6"/>
<path d="M315.711 104.105H525.77C526.004 104.105 526.236 104.152 526.452 104.242C526.669 104.332 526.865 104.464 527.03 104.63C527.195 104.796 527.325 104.993 527.414 105.21C527.503 105.427 527.547 105.659 527.546 105.893C527.546 106.364 527.359 106.816 527.026 107.149C526.693 107.482 526.241 107.669 525.77 107.669H315.711C315.477 107.671 315.244 107.626 315.028 107.537C314.811 107.449 314.614 107.318 314.447 107.153C314.281 106.988 314.149 106.792 314.059 106.576C313.969 106.359 313.923 106.127 313.923 105.893C313.923 105.419 314.111 104.964 314.447 104.629C314.782 104.294 315.237 104.105 315.711 104.105Z" fill="#E6E6E6"/>
<path d="M327.308 299.379H510.609V110.23L327.308 110.23V299.379Z" fill="#F0F0F0"/>
<path d="M334.918 306.445H514.161V299.379H334.918V306.445Z" fill="#E6E6E6"/>
<path d="M314.636 306.445H497.938V299.379H314.636V306.445Z" fill="#F0F0F0"/>
<path d="M499.955 288.736V120.885L337.95 120.885V288.736H499.955Z" fill="#FAFAFA"/>
<path d="M463.183 288.736L400.694 120.872H371.182L433.684 288.736H463.183Z" fill="white"/>
<path d="M427.342 288.736L364.852 120.872H353.352L415.842 288.736H427.342Z" fill="white"/>
<path d="M339.315 288.736V120.885H337.962V288.736H339.315Z" fill="#E6E6E6"/>
<g opacity="0.6">
<path d="M380.061 272.018H319.057L322.524 100.687H383.528L380.061 272.018Z" fill="#F0F0F0"/>
<path d="M403.822 272.017H356.3L359.767 100.687H407.289L403.822 272.017Z" fill="#E6E6E6"/>
<path d="M441.065 272.017H380.061L383.528 100.687H444.532L441.065 272.017Z" fill="#F0F0F0"/>
<path d="M464.826 272.017H417.304L420.771 100.687L468.293 100.675L464.826 272.017Z" fill="#E6E6E6"/>
<path d="M502.069 272.017H441.065L444.532 100.687L505.536 100.675L502.069 272.017Z" fill="#F0F0F0"/>
</g>
<path d="M266.521 273.056V91.047L103.441 91.047V273.056H266.521Z" fill="#EBEBEB"/>
<path d="M267.995 273.056V91.047H266.521V273.056H267.995Z" fill="#E0E0E0"/>
<path d="M115.533 260.964H254.453L254.453 103.115L115.533 103.115L115.533 260.964Z" fill="#F5F5F5"/>
<path d="M190.115 266.207H229.242V211.448H190.115V266.207Z" fill="white"/>
<path d="M143.051 270.991H182.166L184.981 216.22H145.866L143.051 270.991Z" fill="white"/>
<path d="M108.974 203.174H148.089L150.903 148.403H111.788L108.974 203.174Z" fill="white"/>
<path d="M228.685 153.263L258.771 154.582L260.617 112.475L230.53 111.156L228.685 153.263Z" fill="white"/>
<path d="M108.974 136.347L139.061 137.666L140.906 95.5593L110.82 94.2404L108.974 136.347Z" fill="white"/>
<path d="M259.99 161.184L229.877 160.784L229.318 202.927L259.431 203.327L259.99 161.184Z" fill="white"/>
<path d="M159.528 201.051L223.308 199.202L220.72 109.92L156.941 111.769L159.528 201.051Z" fill="white"/>
<path d="M142.508 461.939V294.752H75.4517L75.4517 461.939H142.508Z" fill="#F0F0F0"/>
<path d="M138.823 348.158V298.944H79.124V348.158H138.823Z" fill="#E6E6E6"/>
<path d="M138.823 401.793V352.579H79.124V401.793H138.823Z" fill="#E6E6E6"/>
<path d="M138.823 455.428V406.214H79.124V455.428H138.823Z" fill="#E6E6E6"/>
<path d="M102.608 348.158V298.944H79.124V348.158H102.608Z" fill="#E0E0E0"/>
<path d="M102.608 401.793V352.579H79.124V401.793H102.608Z" fill="#E0E0E0"/>
<path d="M102.595 455.428V406.214H79.112V455.428H102.595Z" fill="#E0E0E0"/>
<path d="M160.712 461.939V294.752H142.508V461.939H160.712Z" fill="#F5F5F5"/>
<path d="M214.203 461.939V294.752H147.146V461.939H214.203Z" fill="#F0F0F0"/>
<path d="M210.518 348.158V298.944H150.819V348.158H210.518Z" fill="#E6E6E6"/>
<path d="M210.518 401.793V352.579H150.819V401.793H210.518Z" fill="#E6E6E6"/>
<path d="M210.53 455.416V406.202H150.831V455.416H210.53Z" fill="#E6E6E6"/>
<path d="M174.302 348.158V298.944H150.819V348.158H174.302Z" fill="#E0E0E0"/>
<path d="M174.302 401.793V352.579H150.819V401.793H174.302Z" fill="#E0E0E0"/>
<path d="M174.29 455.428V406.214H150.807V455.428H174.29Z" fill="#E0E0E0"/>
<path d="M232.407 461.939V294.752H214.203V461.939H232.407Z" fill="#F5F5F5"/>
<path d="M128.048 392.117C128.048 397.456 121.138 401.781 112.622 401.781C104.105 401.781 97.244 397.432 97.244 392.117H128.048Z" fill="#F0F0F0"/>
<path d="M128.048 384.893C128.048 390.232 121.138 394.557 112.622 394.557C104.105 394.557 97.2078 390.232 97.2078 384.893H128.048Z" fill="#F0F0F0"/>
<path d="M201.736 338.494C201.736 343.833 193.099 348.158 182.408 348.158C171.717 348.158 163.08 343.833 163.08 338.494H201.736Z" fill="#FAFAFA"/>
<path d="M201.736 331.258C201.736 336.597 193.099 340.922 182.408 340.922C171.717 340.922 163.08 336.585 163.08 331.258H201.736Z" fill="#FAFAFA"/>
<path d="M154.878 455.416H203.355V413.293H154.878V455.416Z" fill="#F0F0F0"/>
<path d="M210.518 413.305H203.343V455.428H210.518V413.305Z" fill="#E0E0E0"/>
<path d="M83.1829 348.158H131.66V306.035H83.1829V348.158Z" fill="#F0F0F0"/>
<path d="M138.823 306.035H131.648V348.158H138.823V306.035Z" fill="#E0E0E0"/>
<path d="M323.285 461.939H332.695V373.441H323.285V461.939Z" fill="#E6E6E6"/>
<path d="M320.76 461.939H326.305V373.441H320.76V461.939Z" fill="#F0F0F0"/>
<path d="M452.625 373.441H319.057V383.238H452.625V373.441Z" fill="#F0F0F0"/>
<path d="M512.349 461.939H521.759V373.441H512.349V461.939Z" fill="#E6E6E6"/>
<path d="M510.585 461.939H516.13V373.441H510.585V461.939Z" fill="#F0F0F0"/>
<path d="M523.439 373.441H456.648V383.238H523.439V373.441Z" fill="#E6E6E6"/>
<path d="M453.423 461.939H462.833V373.441H453.423V461.939Z" fill="#E6E6E6"/>
<path d="M450.91 461.939H456.455V373.441H450.91V461.939Z" fill="#F0F0F0"/>
<path d="M302 516.493C431.356 516.493 536.219 510.37 536.219 502.818C536.219 495.266 431.356 489.143 302 489.143C172.644 489.143 67.7809 495.266 67.7809 502.818C67.7809 510.37 172.644 516.493 302 516.493Z" fill="#F5F5F5"/>
<path d="M360.963 490.013L343.881 488.032V390.051H329.24V488.032L312.159 490.013L310.673 494.869H362.448L360.963 490.013Z" fill="#263238"/>
<path opacity="0.4" d="M360.963 490.013L343.881 488.032V390.051H329.24V488.032L312.159 490.013L310.673 494.869H362.448L360.963 490.013Z" fill="#407BFF"/>
<path d="M332.2 258.21H408.304C395.417 298.482 388.793 340.495 388.662 382.779H312.558C312.689 340.495 319.313 298.482 332.2 258.21Z" fill="#407BFF"/>
<path opacity="0.3" d="M332.2 258.21H408.304C395.417 298.482 388.793 340.495 388.662 382.779H312.558C312.689 340.495 319.313 298.482 332.2 258.21Z" fill="black"/>
<path d="M327.573 258.21H403.677C390.787 298.482 384.158 340.495 384.023 382.779H307.919C308.048 340.494 314.677 298.48 327.573 258.21Z" fill="#407BFF"/>
<path d="M371.182 394.472H263.453C267.983 384.615 276.221 378.575 285.112 378.575H363.886L371.182 394.472Z" fill="#407BFF"/>
<path d="M393.071 394.472H341.055C345.573 384.615 353.811 378.575 362.714 378.575H381.124C390.015 378.575 394.412 383.709 393.071 394.472Z" fill="#407BFF"/>
<path opacity="0.3" d="M393.071 394.472H341.055C345.573 384.615 353.811 378.575 362.714 378.575H381.124C390.015 378.575 394.412 383.709 393.071 394.472Z" fill="black"/>
<path d="M286.84 484.782L277.091 486.063L270.749 463.981L280.498 462.7L286.84 484.782Z" fill="#FFC3BD"/>
<path d="M275.871 483.514L286.743 482.077C286.925 482.048 287.111 482.091 287.262 482.197C287.413 482.303 287.517 482.463 287.552 482.644L289.219 491.233C289.281 491.688 289.161 492.149 288.885 492.515C288.609 492.882 288.2 493.124 287.746 493.19C283.928 493.625 282.08 493.637 277.272 494.277C274.313 494.664 264.129 496.077 260.01 496.101C255.891 496.126 256.096 492.055 257.787 491.656C265.603 489.965 271.8 486.824 274.264 484.323C274.696 483.884 275.261 483.599 275.871 483.514Z" fill="#263238"/>
<path opacity="0.2" d="M280.498 462.712L270.749 463.993L274.023 475.372L283.771 474.092L280.498 462.712Z" fill="black"/>
<path d="M318.815 343.193C318.815 343.193 242.409 348.665 245.49 376.654C249.923 416.893 267.234 469.731 267.234 469.731L284.955 466.687C284.955 466.687 277.538 417.968 273.6 386.56C292.662 378.66 344.365 386.234 350.429 369.769C353.403 361.241 354.188 352.103 352.712 343.193H318.815Z" fill="#263238"/>
<path opacity="0.3" d="M281.585 366.495C281.585 366.495 283.445 374.818 284.713 383.854H284.544L282.587 384.156L281.585 384.349L280.461 384.555C278.927 384.877 277.411 385.28 275.919 385.763L274.892 386.101C274.445 386.246 274.011 386.427 273.6 386.596C274.047 390.22 275.593 394.944 275.605 399.075C258.609 378.974 272.621 366.495 281.585 366.495Z" fill="black"/>
<path d="M287.733 470.709L266.944 473.439L264.141 465.962L284.955 461.299L287.733 470.709Z" fill="#407BFF"/>
<path d="M272.634 485.616C273.505 485.478 274.36 485.247 275.182 484.927C275.224 484.913 275.26 484.887 275.288 484.853C275.315 484.819 275.333 484.778 275.339 484.734C275.341 484.689 275.33 484.644 275.306 484.605C275.282 484.567 275.248 484.536 275.207 484.517C274.868 484.336 271.873 482.813 270.737 483.442C270.61 483.515 270.502 483.618 270.424 483.742C270.346 483.866 270.3 484.008 270.29 484.154C270.243 484.377 270.26 484.609 270.339 484.823C270.418 485.037 270.556 485.224 270.737 485.362C271.316 485.679 271.992 485.77 272.634 485.616ZM274.518 484.686C272.827 485.254 271.534 485.374 271.015 484.976C270.904 484.881 270.821 484.758 270.774 484.62C270.727 484.482 270.718 484.333 270.749 484.191C270.75 484.119 270.769 484.05 270.805 483.988C270.841 483.927 270.893 483.876 270.954 483.84C271.571 483.55 273.298 484.154 274.518 484.734V484.686Z" fill="#407BFF"/>
<path d="M275.134 484.988C275.165 485 275.2 485 275.231 484.988C275.265 484.966 275.292 484.935 275.311 484.899C275.33 484.863 275.34 484.823 275.339 484.782C275.339 484.674 275.182 481.835 274.071 481.026C273.931 480.916 273.768 480.841 273.593 480.807C273.419 480.773 273.239 480.782 273.068 480.832C272.874 480.864 272.696 480.96 272.563 481.104C272.429 481.249 272.348 481.434 272.331 481.63C272.247 482.717 273.974 484.565 275.013 485.012C275.055 485.016 275.097 485.008 275.134 484.988ZM273.286 481.219C273.47 481.195 273.655 481.243 273.805 481.352C274.461 482.219 274.825 483.272 274.844 484.36C273.902 483.756 272.73 482.342 272.791 481.63C272.791 481.485 272.851 481.316 273.177 481.243L273.286 481.219Z" fill="#407BFF"/>
<path d="M329.397 267.632C328.552 271.426 327.525 274.953 326.498 278.577C325.471 282.201 324.312 285.74 323.055 289.28C321.799 292.819 320.482 296.359 319.045 299.874C317.607 303.389 316.001 306.856 314.273 310.299L313.959 310.915L313.838 311.096C312.791 312.583 311.501 313.881 310.021 314.938C308.886 315.764 307.695 316.51 306.457 317.172C304.242 318.322 301.944 319.307 299.584 320.12C297.301 320.917 295.018 321.582 292.735 322.149C290.436 322.721 288.11 323.172 285.764 323.502L283.505 316.496L289.243 313.283C291.14 312.196 293.012 311.12 294.8 310.009C296.527 308.968 298.196 307.835 299.801 306.615C300.487 306.105 301.13 305.539 301.722 304.923C302.217 304.404 302.58 303.897 302.507 303.848L302.072 304.646C303.389 301.432 304.597 298.134 305.769 294.8C306.941 291.466 308.004 288.084 309.055 284.665C310.106 281.247 311.108 277.828 312.087 274.385C313.065 270.942 314.02 267.439 314.926 264.117L329.397 267.632Z" fill="#FFC3BD"/>
<path d="M313.428 265.011C305.443 274.18 300.14 287.009 300.14 287.009L321.038 299.584C327.078 292.227 334.592 272.791 334.894 266.231C335.365 256.156 322.029 255.142 313.428 265.011Z" fill="#407BFF"/>
<path opacity="0.5" d="M313.428 265.011C305.443 274.18 300.14 287.009 300.14 287.009L321.038 299.584C327.078 292.227 334.592 272.791 334.894 266.231C335.365 256.156 322.029 255.142 313.428 265.011Z" fill="white"/>
<path opacity="0.5" d="M320.784 274.361C316.23 278.19 312.993 286.151 311.579 293.882L321.038 299.572C324.022 295.948 327.368 289.364 330.026 282.817C327.9 276.33 324.807 270.979 320.784 274.361Z" fill="#407BFF"/>
<path d="M317.837 490.665H308.016L303.51 467.919H313.331L317.837 490.665Z" fill="#FFC3BD"/>
<path d="M307.702 488.274H318.743C318.927 488.267 319.106 488.333 319.241 488.457C319.377 488.582 319.458 488.754 319.468 488.938L319.999 497.672C320.002 498.131 319.824 498.573 319.502 498.901C319.181 499.229 318.743 499.417 318.284 499.423C314.442 499.351 312.606 499.134 307.75 499.134C304.766 499.134 294.643 499.436 290.524 499.436C286.405 499.436 286.513 495.365 288.265 494.99C296.093 493.335 303.244 491.052 306.011 488.878C306.491 488.494 307.086 488.281 307.702 488.274Z" fill="#263238"/>
<path opacity="0.2" d="M313.331 467.919H303.51L305.841 479.648H315.662L313.331 467.919Z" fill="black"/>
<path d="M338.059 343.193C338.059 343.193 273.31 348.665 274.905 376.787C276.644 407.579 301.577 476.822 301.577 476.822H319.564C319.564 476.822 311.422 414.175 307.484 382.815C325.737 382.815 363.608 386.258 369.672 369.793C372.635 361.419 373.233 352.391 371.4 343.7L338.059 343.193Z" fill="#263238"/>
<path d="M320.591 477.1L299.016 478.078L297.349 468.813L319.927 468.885L320.591 477.1Z" fill="#407BFF"/>
<path d="M304.223 489.989C305.106 489.963 305.985 489.845 306.844 489.639C306.887 489.628 306.925 489.605 306.955 489.573C306.985 489.541 307.005 489.501 307.013 489.457C307.022 489.414 307.018 489.369 307.001 489.327C306.984 489.286 306.954 489.252 306.917 489.228C306.602 489.01 303.824 487.102 302.628 487.573C302.492 487.628 302.371 487.716 302.278 487.831C302.185 487.945 302.123 488.08 302.097 488.225C302.031 488.434 302.023 488.657 302.074 488.869C302.125 489.082 302.233 489.277 302.387 489.433C302.906 489.844 303.562 490.042 304.223 489.989ZM306.216 489.3C304.452 489.651 303.16 489.602 302.701 489.143C302.605 489.032 302.541 488.897 302.513 488.753C302.486 488.609 302.496 488.461 302.544 488.322C302.554 488.25 302.583 488.183 302.628 488.126C302.672 488.069 302.731 488.024 302.797 487.996C303.437 487.754 305.068 488.576 306.216 489.3Z" fill="#407BFF"/>
<path d="M306.832 489.639H306.929C306.963 489.622 306.992 489.596 307.013 489.564C307.035 489.532 307.047 489.496 307.049 489.457C307.049 489.337 307.279 486.51 306.288 485.556C306.161 485.434 306.008 485.342 305.841 485.286C305.674 485.229 305.497 485.21 305.322 485.229C305.125 485.238 304.937 485.312 304.786 485.438C304.636 485.565 304.531 485.738 304.489 485.93C304.271 486.993 305.697 489.047 306.711 489.627C306.749 489.643 306.791 489.647 306.832 489.639ZM305.479 485.652C305.571 485.652 305.662 485.669 305.748 485.705C305.833 485.74 305.91 485.792 305.974 485.858C306.519 486.8 306.748 487.892 306.627 488.974C305.769 488.262 304.791 486.703 304.935 486.003C304.935 485.87 305.044 485.701 305.382 485.664L305.479 485.652Z" fill="#407BFF"/>
<path d="M288.156 316.762L277.176 314.008L277.949 325.749C277.949 325.749 288.821 325.749 289.739 322.548L288.156 316.762Z" fill="#FFC3BD"/>
<path d="M268.828 319.733L271.413 327.102L277.949 325.749L277.176 314.008L268.828 319.733Z" fill="#FFC3BD"/>
<path d="M318.912 343.7H371.436C371.81 339.013 370.723 323.744 371.532 304.307C372.031 289.905 373.777 275.572 376.751 261.472C376.993 260.409 377.234 259.37 377.488 258.307C377.488 258.307 374.818 257.763 371.001 257.207C367.836 256.736 363.862 256.265 359.972 256.084C352.537 255.655 345.083 255.655 337.648 256.084C334.217 256.398 330.859 256.966 328.189 257.485C324.771 258.174 322.753 258.766 322.753 258.766C322.753 258.766 309.78 288.47 318.912 343.7Z" fill="#407BFF"/>
<path opacity="0.5" d="M318.912 343.7H371.436C371.81 339.013 370.723 323.744 371.532 304.307C372.031 289.905 373.777 275.572 376.751 261.472C376.993 260.409 377.234 259.37 377.488 258.307C377.488 258.307 374.818 257.763 371.001 257.207C367.836 256.736 363.862 256.265 359.972 256.084C352.537 255.655 345.083 255.655 337.648 256.084C334.217 256.398 330.859 256.966 328.189 257.485C324.771 258.174 322.753 258.766 322.753 258.766C322.753 258.766 309.78 288.47 318.912 343.7Z" fill="white"/>
<path opacity="0.5" d="M371.496 304.319C371.995 289.913 373.741 275.577 376.715 261.472C373.212 261.17 367.208 261.472 366.217 267.185C365.142 273.274 365.058 287.504 371.496 304.319Z" fill="#407BFF"/>
<path d="M380.786 265.108C381.293 266.038 381.643 266.738 381.994 267.524C382.344 268.309 382.731 269.094 383.081 269.94C383.782 271.51 384.446 273.093 385.074 274.687C386.332 277.9 387.417 281.179 388.324 284.508C389.257 287.882 389.98 291.312 390.486 294.776C391.013 298.35 391.223 301.964 391.114 305.576V305.926V306.615C391.075 307.098 391.007 307.578 390.909 308.052C390.723 308.953 390.431 309.829 390.039 310.661C389.38 312.049 388.485 313.312 387.394 314.394C385.771 315.974 383.907 317.287 381.873 318.284C378.589 319.883 375.131 321.1 371.569 321.908C368.263 322.696 364.916 323.297 361.542 323.708C358.207 324.126 354.852 324.368 351.492 324.433L350.501 317.124C356.48 315.448 362.37 313.472 368.15 311.205C370.775 310.19 373.295 308.924 375.676 307.424C376.504 306.911 377.239 306.262 377.85 305.503C378.007 305.274 378.007 305.153 377.923 305.262C377.856 305.357 377.807 305.463 377.778 305.576C377.751 305.654 377.73 305.735 377.717 305.817C377.717 305.817 377.717 305.938 377.717 305.89V305.636C377.26 299.85 376.095 294.142 374.251 288.64C373.332 285.805 372.31 282.986 371.182 280.184C370.639 278.782 370.059 277.381 369.455 276.004L368.525 273.962L367.643 272.066L380.786 265.108Z" fill="#FFC3BD"/>
<path d="M377.452 258.307C367.884 255.287 361.748 262.933 364.405 276.185C367.063 289.437 370.445 294.378 370.445 294.378L392.817 291.213C390.993 278.214 387.237 261.399 377.452 258.307Z" fill="#407BFF"/>
<path opacity="0.5" d="M377.452 258.307C367.884 255.287 361.748 262.933 364.405 276.185C367.063 289.437 370.445 294.378 370.445 294.378L392.817 291.213C390.993 278.214 387.237 261.399 377.452 258.307Z" fill="white"/>
<path d="M359.452 231.042L353.485 235.995L345.343 242.808C345.584 243.891 345.757 244.989 345.862 246.094C346.297 250.515 345.162 254.55 338.675 256.06C338.675 256.06 332.285 262.027 345.053 262.208C357.822 262.39 360.757 256.168 360.757 256.168C355.937 251.336 357.798 238.23 359.452 231.042Z" fill="#FFC3BD"/>
<path d="M359.887 252.557C359.887 252.557 353.219 259.527 344.425 262.148C346.003 262.462 347.43 263.3 348.473 264.525C349.517 265.751 350.116 267.292 350.175 268.901C356.493 267.016 363.995 257.521 363.789 255.758C362.424 254.772 361.121 253.703 359.887 252.557Z" fill="white"/>
<path d="M341.586 254.526C341.586 254.526 335.619 259.527 344.425 262.148C342.807 262.343 341.287 263.025 340.066 264.103C338.845 265.182 337.98 266.607 337.588 268.188C336.024 266.451 335.081 264.245 334.906 261.914C334.731 259.584 335.335 257.262 336.621 255.311C338.291 255.156 339.95 254.894 341.586 254.526Z" fill="white"/>
<path opacity="0.2" d="M345.343 242.808C345.584 243.891 345.757 244.989 345.862 246.094C348.895 245.49 352.953 242.252 353.376 239.16C353.522 238.132 353.558 237.091 353.485 236.055L345.343 242.808Z" fill="black"/>
<path d="M337.551 208.984C333.541 212.306 334.266 225.159 338.119 223.975C341.973 222.791 344.171 203.524 337.551 208.984Z" fill="#263238"/>
<path d="M361.917 220.702C359.839 230.245 359.114 235.922 353.461 240.283C351.643 241.713 349.469 242.62 347.173 242.905C344.878 243.191 342.548 242.844 340.435 241.903C338.322 240.963 336.506 239.463 335.183 237.566C333.859 235.669 333.079 233.447 332.925 231.139C332.188 222.248 335.715 208.126 345.754 205.42C347.914 204.78 350.204 204.718 352.395 205.242C354.587 205.765 356.602 206.855 358.239 208.403C359.876 209.951 361.078 211.902 361.723 214.06C362.369 216.219 362.435 218.509 361.917 220.702Z" fill="#FFC3BD"/>
<path d="M358.776 227.249C357.23 225.34 357.121 220.484 358.22 218.938C356.565 217.621 354.91 213.369 356.191 211.69C352.953 211.472 336.198 215.495 332.864 203.463C334.599 203.759 336.372 203.759 338.107 203.463C338.107 203.463 334.701 197.798 340.741 196.107C341.622 198.97 348.907 199.26 352.519 199.127C359.924 198.825 368.367 201.905 364.949 207.655C370.361 210.035 371.243 220.545 358.776 227.249Z" fill="#263238"/>
<path d="M363.608 207.293C363.608 207.293 367.305 208.066 366.592 203.355C369.648 205.94 367.691 210.663 363.608 207.293Z" fill="#263238"/>
<path d="M363.475 229.52C362.181 231.203 360.316 232.354 358.232 232.757C355.526 233.241 354.705 230.752 355.901 228.348C356.976 226.174 359.682 223.311 362.17 223.927C364.659 224.543 365.082 227.442 363.475 229.52Z" fill="#FFC3BD"/>
<path d="M357.906 223.879C356.901 227.395 355.264 230.698 353.074 233.627C351.935 235.137 350.436 236.337 348.715 237.12C346.993 237.903 345.103 238.243 343.217 238.109C339.75 238.048 340.282 233.277 340.282 233.277L338.578 232.89C338.578 232.89 338.759 238.797 335.377 236.297C334.476 235.25 333.827 234.01 333.48 232.673C333.128 231.628 332.924 230.538 332.876 229.435C332.055 230.74 331.753 236.526 333.009 239.281C334.198 241.348 336.135 242.879 338.421 243.557C342.596 244.741 347.036 244.585 351.117 243.11C357.278 240.694 358.172 234.751 358.365 231.368C358.597 228.863 359.001 226.377 359.573 223.927L357.906 223.879Z" fill="#263238"/>
<path d="M345.56 221.571C345.44 222.357 344.932 222.936 344.413 222.876C343.893 222.816 343.579 222.127 343.7 221.354C343.821 220.581 344.34 219.977 344.908 220.037C345.476 220.098 345.681 220.786 345.56 221.571Z" fill="#263238"/>
<path d="M336.67 220.508C336.549 221.294 336.041 221.885 335.522 221.825C335.003 221.765 334.688 221.076 334.809 220.291C334.93 219.506 335.449 218.926 335.957 218.986C336.464 219.047 336.79 219.723 336.67 220.508Z" fill="#263238"/>
<path d="M339.448 220.822C338.461 222.843 337.21 224.724 335.727 226.415C336.166 226.768 336.678 227.019 337.225 227.15C337.772 227.282 338.341 227.291 338.892 227.176L339.448 220.822Z" fill="#ED847E"/>
<path d="M338.844 231.042C339.754 231.181 340.682 231.134 341.573 230.904C342.464 230.673 343.298 230.264 344.026 229.701C344.049 229.681 344.068 229.657 344.082 229.63C344.096 229.603 344.104 229.573 344.106 229.543C344.108 229.513 344.104 229.482 344.095 229.454C344.085 229.425 344.07 229.398 344.05 229.375C344.031 229.352 344.006 229.333 343.979 229.32C343.952 229.306 343.923 229.298 343.892 229.295C343.862 229.293 343.832 229.297 343.803 229.306C343.774 229.316 343.747 229.331 343.724 229.351C342.925 229.95 341.998 230.358 341.015 230.542C340.033 230.726 339.021 230.683 338.059 230.414C338.029 230.407 337.999 230.405 337.969 230.41C337.939 230.415 337.911 230.425 337.885 230.441C337.859 230.456 337.836 230.477 337.819 230.502C337.801 230.526 337.788 230.554 337.781 230.583C337.772 230.612 337.769 230.642 337.772 230.672C337.775 230.701 337.784 230.73 337.799 230.756C337.814 230.782 337.833 230.805 337.857 230.823C337.881 230.841 337.909 230.854 337.938 230.861C338.235 230.942 338.538 231.003 338.844 231.042Z" fill="#263238"/>
<path d="M350.61 216.715C350.688 216.701 350.76 216.663 350.815 216.606C350.858 216.564 350.893 216.513 350.916 216.457C350.939 216.401 350.951 216.341 350.951 216.28C350.951 216.22 350.939 216.16 350.916 216.104C350.893 216.048 350.858 215.997 350.815 215.954C350.342 215.396 349.738 214.964 349.057 214.697C348.376 214.429 347.64 214.334 346.913 214.42C346.853 214.429 346.795 214.45 346.742 214.481C346.69 214.513 346.644 214.555 346.608 214.604C346.572 214.654 346.546 214.71 346.532 214.77C346.518 214.829 346.517 214.891 346.527 214.952C346.55 215.073 346.62 215.18 346.722 215.25C346.824 215.32 346.949 215.347 347.07 215.326C347.639 215.272 348.212 215.354 348.743 215.564C349.274 215.774 349.748 216.106 350.127 216.534C350.179 216.61 350.253 216.669 350.339 216.701C350.426 216.734 350.52 216.739 350.61 216.715Z" fill="#263238"/>
<path d="M333.746 214.807C333.818 214.832 333.895 214.837 333.969 214.822C334.044 214.807 334.113 214.773 334.169 214.722C334.614 214.327 335.144 214.04 335.719 213.885C336.293 213.73 336.896 213.711 337.479 213.828C337.599 213.858 337.726 213.841 337.834 213.781C337.942 213.72 338.022 213.62 338.059 213.502C338.092 213.382 338.077 213.253 338.015 213.145C337.954 213.036 337.853 212.956 337.733 212.922C337.003 212.771 336.248 212.79 335.527 212.979C334.806 213.167 334.139 213.52 333.577 214.009C333.528 214.047 333.488 214.094 333.458 214.148C333.429 214.202 333.41 214.261 333.405 214.322C333.399 214.384 333.406 214.445 333.425 214.504C333.445 214.562 333.476 214.616 333.517 214.662C333.577 214.731 333.657 214.782 333.746 214.807Z" fill="#263238"/>
<path d="M352.349 316.689H343.277L347.674 326.353C347.674 326.353 356.589 326.22 356.13 321.63L352.349 316.689Z" fill="#FFC3BD"/>
<path d="M334.628 322.91L339.279 329.18L347.674 326.341L343.277 316.677L334.628 322.91Z" fill="#FFC3BD"/>
<path d="M419.599 501.187H424.008V332.961H419.599V501.187Z" fill="#407BFF"/>
<path d="M445.643 501.187H450.052V332.961H445.643V501.187Z" fill="#407BFF"/>
<path opacity="0.2" d="M445.643 501.187H450.052V332.961H445.643V501.187Z" fill="black"/>
<path d="M169.06 501.187H173.469L173.469 332.961H169.06L169.06 501.187Z" fill="#407BFF"/>
<path opacity="0.2" d="M169.06 332.961H173.469V445.994L169.06 436.124V332.961Z" fill="black"/>
<path d="M143.027 501.187H147.436L147.436 332.961H143.027L143.027 501.187Z" fill="#407BFF"/>
<path d="M143.027 431.365L424.02 431.365V332.961H143.027V431.365Z" fill="#407BFF"/>
<path d="M140.213 332.961L424.02 332.961V325.773L140.213 325.773V332.961Z" fill="#407BFF"/>
<path d="M450.04 332.961H424.008V431.365H450.04V332.961Z" fill="#407BFF"/>
<path opacity="0.2" d="M450.04 332.961H424.008V431.365H450.04V332.961Z" fill="black"/>
<path d="M452.855 325.786H424.008V332.973H452.855V325.786Z" fill="#407BFF"/>
<path opacity="0.2" d="M452.855 325.786H424.008V332.973H452.855V325.786Z" fill="black"/>
<path opacity="0.2" d="M143.027 337.974L450.052 337.974V332.973L143.027 332.973V337.974Z" fill="black"/>
<path d="M318.767 306.47H214.335C212.391 306.445 210.529 305.683 209.125 304.337C207.721 302.992 206.88 301.163 206.773 299.222L204.019 238.532C203.968 237.596 204.109 236.66 204.433 235.78C204.757 234.901 205.257 234.097 205.903 233.419C206.549 232.74 207.327 232.2 208.189 231.833C209.052 231.466 209.98 231.279 210.917 231.284H315.348C317.291 231.311 319.15 232.075 320.552 233.42C321.953 234.765 322.792 236.592 322.898 238.532L325.665 299.222C325.718 300.158 325.578 301.095 325.255 301.975C324.931 302.855 324.431 303.659 323.785 304.338C323.138 305.018 322.36 305.557 321.497 305.924C320.634 306.29 319.705 306.476 318.767 306.47Z" fill="#407BFF"/>
<path d="M317.366 306.47H212.934C210.99 306.445 209.127 305.683 207.723 304.337C206.32 302.992 205.479 301.163 205.372 299.222L202.618 238.532C202.567 237.596 202.708 236.66 203.032 235.78C203.356 234.901 203.856 234.097 204.502 233.419C205.148 232.74 205.926 232.2 206.788 231.833C207.65 231.466 208.578 231.279 209.516 231.284H313.947C315.889 231.311 317.749 232.075 319.15 233.42C320.552 234.765 321.39 236.592 321.497 238.532L324.263 299.222C324.316 300.158 324.177 301.095 323.853 301.975C323.53 302.855 323.03 303.659 322.383 304.338C321.737 305.018 320.958 305.557 320.095 305.924C319.232 306.29 318.303 306.476 317.366 306.47Z" fill="#407BFF"/>
<path opacity="0.2" d="M317.366 306.47H212.934C210.99 306.445 209.127 305.683 207.723 304.337C206.32 302.992 205.479 301.163 205.372 299.222L202.618 238.532C202.567 237.596 202.708 236.66 203.032 235.78C203.356 234.901 203.856 234.097 204.502 233.419C205.148 232.74 205.926 232.2 206.788 231.833C207.65 231.466 208.578 231.279 209.516 231.284H313.947C315.889 231.311 317.749 232.075 319.15 233.42C320.552 234.765 321.39 236.592 321.497 238.532L324.263 299.222C324.316 300.158 324.177 301.095 323.853 301.975C323.53 302.855 323.03 303.659 322.383 304.338C321.737 305.018 320.958 305.557 320.095 305.924C319.232 306.29 318.303 306.476 317.366 306.47Z" fill="white"/>
<path d="M274.53 269.795H254.586V306.47H274.53V269.795Z" fill="#407BFF"/>
<path d="M253.958 265.881L245.151 325.761H266.726L275.533 265.881H253.958ZM266.63 284.907L265.204 294.571C265.1 295.288 264.741 295.944 264.193 296.418C263.646 296.893 262.945 297.155 262.221 297.156H258.971C258.536 297.155 258.107 297.061 257.712 296.88C257.317 296.699 256.966 296.435 256.682 296.106C256.398 295.778 256.187 295.392 256.066 294.974C255.944 294.557 255.913 294.119 255.975 293.689L257.401 284.025C257.505 283.308 257.864 282.652 258.412 282.177C258.959 281.703 259.66 281.441 260.384 281.44H263.634C264.068 281.441 264.498 281.535 264.893 281.716C265.288 281.897 265.639 282.161 265.923 282.489C266.207 282.818 266.417 283.204 266.539 283.621C266.661 284.038 266.692 284.477 266.63 284.907Z" fill="#407BFF"/>
<path opacity="0.2" d="M253.958 265.881L245.151 325.761H266.726L275.533 265.881H253.958ZM266.63 284.907L265.204 294.571C265.1 295.288 264.741 295.944 264.193 296.418C263.646 296.893 262.945 297.155 262.221 297.156H258.971C258.536 297.155 258.107 297.061 257.712 296.88C257.317 296.699 256.966 296.435 256.682 296.106C256.398 295.778 256.187 295.392 256.066 294.974C255.944 294.557 255.913 294.119 255.975 293.689L257.401 284.025C257.505 283.308 257.864 282.652 258.412 282.177C258.959 281.703 259.66 281.441 260.384 281.44H263.634C264.068 281.441 264.498 281.535 264.893 281.716C265.288 281.897 265.639 282.161 265.923 282.489C266.207 282.818 266.417 283.204 266.539 283.621C266.661 284.038 266.692 284.477 266.63 284.907Z" fill="white"/>
<path d="M279.024 321.388H241.262L236.623 325.786H289.062L279.024 321.388Z" fill="#407BFF"/>
<path opacity="0.2" d="M279.024 321.388H241.262L236.623 325.786H289.062L279.024 321.388Z" fill="white"/>
<path d="M167.501 312.353C165.375 311.145 166.1 299.524 167.03 292.88C168.166 284.846 171.548 270.628 182.299 262.752C187.421 258.995 192.314 255.806 193.171 251.759C194.742 255.383 203.669 281.041 190.936 292.578C180.161 302.326 172.176 300.152 167.501 312.353Z" fill="#407BFF"/>
<g opacity="0.2">
<path d="M167.501 312.353C165.375 311.145 166.1 299.524 167.03 292.88C168.166 284.846 171.548 270.628 182.299 262.752C187.421 258.995 192.314 255.806 193.171 251.759C194.742 255.383 203.669 281.041 190.936 292.578C180.161 302.326 172.176 300.152 167.501 312.353Z" fill="black"/>
</g>
<path d="M170.328 305.757C172.804 304.368 169.966 290.826 167.695 283.119C164.952 273.793 158.357 257.316 143.535 248.304C136.504 244.016 129.824 240.392 128.048 235.669C126.671 239.86 122.25 272.875 140.128 286.115C155.313 297.313 162.416 291.647 170.328 305.757Z" fill="#407BFF"/>
<path d="M169.12 302.737C169.047 302.735 168.977 302.711 168.918 302.668C168.86 302.625 168.816 302.564 168.794 302.495C165.127 291.082 160.488 280.004 154.926 269.384C145.866 251.566 133.677 248.667 133.557 248.643C133.514 248.633 133.474 248.615 133.439 248.589C133.404 248.564 133.374 248.531 133.352 248.494C133.329 248.457 133.315 248.416 133.308 248.373C133.302 248.33 133.304 248.286 133.315 248.244C133.324 248.202 133.34 248.162 133.365 248.126C133.389 248.091 133.42 248.06 133.455 248.037C133.491 248.013 133.532 247.997 133.574 247.989C133.616 247.981 133.659 247.981 133.701 247.99C133.834 247.99 146.301 250.962 155.518 269.094C161.081 279.754 165.716 290.872 169.374 302.326C169.396 302.411 169.385 302.501 169.342 302.578C169.299 302.655 169.228 302.712 169.144 302.737H169.12Z" fill="white"/>
<path d="M130.585 260.336C130.543 260.338 130.501 260.332 130.461 260.317C130.422 260.303 130.386 260.28 130.355 260.252C130.294 260.188 130.26 260.104 130.26 260.016C130.26 259.928 130.294 259.844 130.355 259.78C132.591 257.642 135.438 256.254 138.5 255.81C141.562 255.367 144.685 255.889 147.436 257.304C147.475 257.322 147.51 257.348 147.539 257.38C147.568 257.412 147.59 257.449 147.603 257.49C147.617 257.531 147.622 257.574 147.618 257.617C147.614 257.66 147.602 257.701 147.581 257.739C147.565 257.779 147.54 257.815 147.508 257.845C147.477 257.875 147.439 257.898 147.398 257.913C147.358 257.928 147.314 257.934 147.271 257.931C147.227 257.928 147.185 257.916 147.146 257.896C144.513 256.55 141.525 256.059 138.6 256.492C135.674 256.925 132.957 258.261 130.826 260.312C130.751 260.348 130.666 260.356 130.585 260.336Z" fill="white"/>
<path d="M143.353 282.382C143.298 282.398 143.24 282.398 143.184 282.382C143.147 282.361 143.114 282.332 143.088 282.298C143.061 282.264 143.042 282.225 143.031 282.184C143.02 282.142 143.017 282.099 143.022 282.056C143.028 282.013 143.042 281.972 143.063 281.935C143.063 281.826 149.103 271.86 157.958 274.301C158.042 274.326 158.113 274.383 158.156 274.459C158.199 274.536 158.21 274.626 158.188 274.711C158.162 274.795 158.105 274.866 158.029 274.909C157.952 274.952 157.862 274.963 157.777 274.941C149.43 272.634 143.692 282.189 143.643 282.273C143.607 282.312 143.561 282.343 143.511 282.361C143.461 282.38 143.407 282.387 143.353 282.382Z" fill="white"/>
<path d="M152.933 265.446C152.86 265.445 152.79 265.42 152.731 265.377C152.673 265.334 152.629 265.273 152.607 265.204C152.301 264.06 152.412 262.844 152.921 261.774C153.113 261.471 153.368 261.212 153.668 261.014C153.968 260.816 154.306 260.684 154.66 260.626C154.702 260.615 154.746 260.614 154.789 260.621C154.832 260.628 154.873 260.644 154.909 260.668C154.946 260.692 154.977 260.723 155 260.759C155.024 260.796 155.04 260.837 155.047 260.88C155.065 260.966 155.049 261.056 155.001 261.131C154.954 261.205 154.879 261.258 154.793 261.278C154.526 261.313 154.271 261.407 154.045 261.553C153.819 261.699 153.629 261.894 153.488 262.124C153.079 263.039 152.994 264.066 153.247 265.035C153.26 265.076 153.264 265.12 153.259 265.163C153.254 265.206 153.24 265.247 153.219 265.285C153.197 265.322 153.168 265.354 153.134 265.38C153.099 265.406 153.059 265.424 153.017 265.434L152.933 265.446Z" fill="white"/>
<path d="M186.551 299.572H155.977L158.792 325.749H183.737L186.551 299.572Z" fill="#407BFF"/>
<path opacity="0.7" d="M186.551 299.572H155.977L158.792 325.749H183.737L186.551 299.572Z" fill="white"/>
<path d="M428.84 302V300.369C428.84 300.02 428.701 299.685 428.454 299.438C428.207 299.191 427.873 299.052 427.523 299.052H411.276C410.926 299.052 410.592 299.191 410.345 299.438C410.098 299.685 409.959 300.02 409.959 300.369V325.737H428.84V322.79C432.947 322.79 436.173 318.223 436.173 312.389C436.173 306.554 432.959 302 428.84 302ZM428.84 320.12V304.682C431.377 304.682 433.527 308.233 433.527 312.437C433.527 316.641 431.389 320.192 428.84 320.192V320.12Z" fill="#407BFF"/>
<path opacity="0.2" d="M428.84 302V300.369C428.84 300.02 428.701 299.685 428.454 299.438C428.207 299.191 427.873 299.052 427.523 299.052H411.276C410.926 299.052 410.592 299.191 410.345 299.438C410.098 299.685 409.959 300.02 409.959 300.369V325.737H428.84V322.79C432.947 322.79 436.173 318.223 436.173 312.389C436.173 306.554 432.959 302 428.84 302ZM428.84 320.12V304.682C431.377 304.682 433.527 308.233 433.527 312.437C433.527 316.641 431.389 320.192 428.84 320.192V320.12Z" fill="white"/>
<path opacity="0.3" d="M428.852 304.682H426.702L428.852 310.637V304.682Z" fill="black"/>
<path opacity="0.3" d="M428.852 322.838H426.702L428.852 323.829V322.838Z" fill="black"/>
</svg>
