<svg width="703" height="557" viewBox="0 0 703 557" fill="none" xmlns="http://www.w3.org/2000/svg">
<g opacity="0.5" clip-path="url(#clip0_10_49)">
<path d="M703 0H0V557H703V0Z" fill="white"/>
<path d="M228.399 490.28C228.399 490.28 135.287 357.681 137.266 292.035C139.242 226.389 355.985 52.4672 412.091 61.8471C468.196 71.2269 484.337 218.716 438.991 326.137C393.646 433.558 504.322 355.976 514.313 291.182C524.303 226.387 628.064 370.523 491.254 490.28H228.399Z" fill="#DEEFFF"/>
<path d="M428.88 134.507C424.897 134.507 421.655 130.913 421.655 126.492C421.655 122.074 424.895 118.478 428.88 118.478C432.863 118.478 436.105 122.072 436.105 126.492C436.103 130.913 432.863 134.507 428.88 134.507ZM428.88 121.174C426.237 121.174 424.086 123.56 424.086 126.492C424.086 129.425 426.237 131.811 428.88 131.811C431.523 131.811 433.675 129.425 433.675 126.492C433.675 123.56 431.523 121.174 428.88 121.174Z" fill="#99BBDD"/>
<path d="M137.443 198.849C133.46 198.849 130.218 195.255 130.218 190.835C130.218 186.417 133.458 182.821 137.443 182.821C141.428 182.821 144.667 186.415 144.667 190.835C144.667 195.255 141.426 198.849 137.443 198.849ZM137.443 185.517C134.799 185.517 132.648 187.903 132.648 190.835C132.648 193.767 134.799 196.153 137.443 196.153C140.086 196.153 142.237 193.767 142.237 190.835C142.239 187.903 140.088 185.517 137.443 185.517Z" fill="#99BBDD"/>
<path d="M313.502 110.192C310.352 110.192 307.791 107.352 307.791 103.858C307.791 100.365 310.352 97.524 313.502 97.524C316.651 97.524 319.212 100.365 319.212 103.858C319.214 107.349 316.651 110.192 313.502 110.192ZM313.502 100.215C311.692 100.215 310.22 101.849 310.22 103.856C310.22 105.863 311.692 107.497 313.502 107.497C315.312 107.497 316.784 105.863 316.784 103.856C316.784 101.849 315.312 100.215 313.502 100.215Z" fill="#99BBDD"/>
<path d="M566.584 270.428C562.601 270.428 559.359 266.834 559.359 262.414C559.359 257.994 562.599 254.4 566.584 254.4C570.567 254.4 573.809 257.994 573.809 262.414C573.809 266.834 570.567 270.428 566.584 270.428ZM566.584 257.096C563.941 257.096 561.789 259.482 561.789 262.414C561.789 265.346 563.941 267.732 566.584 267.732C569.227 267.732 571.378 265.346 571.378 262.414C571.378 259.482 569.227 257.096 566.584 257.096Z" fill="#99BBDD"/>
<path d="M237.056 268.091L200.578 245.889L202.554 166.781L255.659 193.974L237.056 268.091ZM203.046 244.318L235.537 264.094L252.763 195.46L204.878 170.941L203.046 244.318Z" fill="#99BBDD"/>
<path d="M283.434 271.072L241.848 269.548L259.903 195.264L318.085 201.897L283.434 271.072ZM244.989 266.968L282.03 268.325L314.171 204.158L261.707 198.178L244.989 266.968Z" fill="#99BBDD"/>
<path d="M244.005 269.833L235.069 267.117L253.361 193.063L262.297 195.779L244.005 269.833ZM238.054 265.23L242.304 266.522L259.313 197.664L255.062 196.371L238.054 265.23Z" fill="#99BBDD"/>
<path d="M309.975 202.282L306.538 197.479C291.811 191.236 279.728 190.14 272.161 190.327C265.587 190.49 261.203 191.619 259.666 192.083L258.68 196.075L256.338 195.362L257.676 189.948L258.292 189.721C258.497 189.645 263.404 187.865 271.983 187.635C279.844 187.426 292.426 188.551 307.723 195.095L308.032 195.226L311.881 200.607L309.975 202.282Z" fill="#99BBDD"/>
<path d="M258.68 196.075L256.338 195.362L257.324 191.37C256.215 190.104 252.961 186.651 247.38 182.794C240.956 178.356 230.058 172.463 214.517 169.508L209.353 171.699L208.486 169.183L214.268 166.73L214.594 166.79C230.761 169.809 242.101 175.956 248.77 180.582C256.047 185.628 259.449 189.935 259.59 190.117L260.016 190.661L258.68 196.075Z" fill="#99BBDD"/>
<path d="M308.187 197.252L306.379 195.454L311.24 189.44C307.263 189.719 299.478 189.516 285.948 186.55C275.353 184.227 268.759 185.784 265.095 187.497C261.183 189.327 259.702 191.719 259.686 191.744L257.656 190.267C257.925 189.808 264.483 179.1 286.42 183.908C307.054 188.431 313.928 186.357 313.994 186.334L318.063 185.031L315.243 188.527L308.187 197.252Z" fill="#99BBDD"/>
<path d="M252.546 201.138L251.905 203.736L258.59 205.768L259.232 203.17L252.546 201.138Z" fill="#99BBDD"/>
<path d="M251.026 207.229L250.384 209.827L257.069 211.859L257.711 209.261L251.026 207.229Z" fill="#99BBDD"/>
<path d="M238.925 255.892L238.266 258.485L244.939 260.569L245.597 257.976L238.925 255.892Z" fill="#99BBDD"/>
<path d="M240.462 249.836L239.804 252.429L246.476 254.513L247.134 251.92L240.462 249.836Z" fill="#99BBDD"/>
<path d="M260.676 193.762C261.518 193.43 262.388 193.201 263.259 192.992C264.133 192.789 265.013 192.626 265.897 192.497C267.664 192.236 269.446 192.1 271.229 192.056L272.567 192.047C273.013 192.045 273.457 192.065 273.903 192.08C274.793 192.114 275.682 192.165 276.57 192.252C277.458 192.319 278.342 192.457 279.224 192.573C280.103 192.718 280.983 192.88 281.855 193.078C280.961 193.105 280.075 193.074 279.189 193.067L277.862 193.056C277.42 193.052 276.978 193.034 276.536 193.041C276.094 193.043 275.652 193.041 275.212 193.032C274.771 193.021 274.331 193.036 273.889 193.038C273.007 193.034 272.125 193.056 271.245 193.067C269.484 193.112 267.724 193.168 265.963 193.279C264.203 193.397 262.444 193.533 260.676 193.762Z" fill="#99BBDD"/>
<path d="M275.839 195.36C278.239 194.963 280.672 194.876 283.096 194.899C285.522 194.93 287.947 195.093 290.359 195.382C290.962 195.458 291.562 195.547 292.165 195.63L293.067 195.761L293.964 195.919L295.758 196.249C296.355 196.371 296.949 196.505 297.542 196.639C298.733 196.884 299.908 197.227 301.085 197.539C301.378 197.619 301.671 197.706 301.963 197.8L302.836 198.078C303.419 198.268 303.999 198.457 304.576 198.66C303.373 198.477 302.188 198.227 300.994 198.025L299.207 197.715C298.908 197.666 298.612 197.604 298.315 197.557L297.421 197.416C296.825 197.325 296.228 197.227 295.634 197.125L293.842 196.868L292.948 196.735L292.052 196.621C291.456 196.543 290.859 196.458 290.261 196.387C287.868 196.102 285.472 195.861 283.07 195.683C280.668 195.511 278.261 195.38 275.839 195.36Z" fill="#99BBDD"/>
<path d="M257.579 192.161C255.944 191.073 254.339 189.95 252.741 188.823L247.95 185.436L243.156 182.07L238.317 178.746C240.101 179.492 241.828 180.397 243.511 181.386C245.19 182.384 246.837 183.445 248.44 184.585C250.043 185.722 251.612 186.92 253.14 188.175C254.671 189.431 256.167 190.739 257.579 192.161Z" fill="#99BBDD"/>
<path d="M248.173 188.589C245.787 187.268 243.427 185.909 241.069 184.545L237.532 182.504L235.766 181.48L233.997 180.466C232.818 179.788 231.641 179.107 230.453 178.447C229.863 178.113 229.276 177.768 228.68 177.442C228.085 177.117 227.493 176.785 226.902 176.449C224.524 175.139 222.138 173.851 219.728 172.581C222.275 173.459 224.759 174.555 227.204 175.736C228.425 176.328 229.634 176.954 230.837 177.592C231.44 177.908 232.036 178.238 232.631 178.572L234.416 179.572C235.593 180.265 236.774 180.951 237.939 181.667C238.522 182.023 239.102 182.389 239.683 182.752C240.263 183.113 240.84 183.482 241.412 183.861C243.708 185.354 245.978 186.907 248.173 188.589Z" fill="#99BBDD"/>
<path d="M157.914 487.35L156.028 487.166C156.08 486.511 161.594 421.079 191.736 371.639L193.305 372.816C163.433 421.812 157.966 486.702 157.914 487.35Z" fill="#99BBDD"/>
<path d="M148.825 487.328L146.935 487.186C147.003 486.069 153.626 375.115 143.573 341.044L145.372 340.392C155.54 374.85 149.104 482.752 148.825 487.328Z" fill="#99BBDD"/>
<path d="M136.709 487.317C136.681 486.751 133.494 430.536 100.23 407.784L101.224 405.995C135.34 429.331 138.571 486.624 138.601 487.201L136.709 487.317Z" fill="#99BBDD"/>
<path d="M166.663 487.498L164.819 487.018C164.853 486.858 168.274 470.723 172.024 454.924C173.99 446.634 178.006 444.279 181.231 442.385C184.429 440.509 186.739 439.154 186.389 432.562C186.178 428.567 185.753 425.615 185.409 423.244C184.511 417.017 184.102 414.174 189.215 406.276C192.214 401.648 194.866 400.162 196.804 399.077C199.319 397.667 200.582 396.961 200.783 390.025C200.841 388.026 200.867 386.344 200.889 384.9C201.018 376.853 201.034 375.819 205.688 368.444C206.921 366.49 206.324 364.418 205.605 363.021C203.83 359.57 198.995 356.097 194.345 356.493C190.983 356.781 188.47 359.071 187.08 363.117C182.529 376.349 179.745 378.586 174.691 382.648C173.569 383.55 172.295 384.573 170.877 385.834C163.63 392.264 161.413 395.305 162.889 406.737C163.799 413.786 160.372 421.772 157.349 428.816C155.257 433.696 153.278 438.303 153.427 441.262C153.804 448.811 151.163 485.769 151.051 487.337L149.163 487.17C149.191 486.787 151.908 448.784 151.537 441.378C151.362 437.884 153.344 433.264 155.64 427.912C158.549 421.134 161.843 413.454 161.015 407.033C159.412 394.621 162.124 390.909 169.694 384.192C171.148 382.902 172.442 381.861 173.581 380.946C178.339 377.12 180.96 375.013 185.311 362.366C186.96 357.576 190.115 354.747 194.201 354.397C199.124 353.973 204.848 357.307 207.252 361.979C208.65 364.697 208.646 367.419 207.24 369.647C202.918 376.496 202.908 377.134 202.783 384.936C202.759 386.389 202.733 388.08 202.675 390.092C202.448 397.892 200.711 399.24 197.657 400.951C195.798 401.994 193.482 403.29 190.754 407.501C186.094 414.695 186.416 416.932 187.279 422.912C187.629 425.33 188.063 428.337 188.279 432.437C188.701 440.378 185.502 442.256 182.115 444.241C179.066 446.03 175.609 448.057 173.854 455.459C170.112 471.229 166.697 487.337 166.663 487.498Z" fill="#99BBDD"/>
<path d="M131.091 487.44C131.057 487.228 127.663 466.24 120.496 460.675C112.623 454.561 110.257 449.969 109.487 439.308C109.383 437.855 109.306 436.561 109.238 435.402C108.816 428.199 108.74 426.9 104.349 424.628C102.819 423.837 101.391 423.429 100.011 423.035C96.4375 422.019 93.3524 421.141 92.4485 414.136C92.0026 410.683 90.6026 409.237 88.9817 407.566C86.8366 405.351 84.4062 402.842 84.8642 395.448C85.1012 391.64 87.0053 390.245 88.5599 389.744C94.8528 387.714 107.772 396.865 111.197 402.043C113.753 405.908 115.772 406.706 118.11 407.63C119.42 408.147 120.775 408.682 122.306 409.763C122.667 410.019 123.037 410.273 123.413 410.531C127.339 413.238 132.228 416.609 132.967 424.407L133.068 425.472C133.749 432.751 134.161 437.147 138.218 440.482C142.912 444.341 142.522 452.043 142.145 459.492L142.064 461.131C141.691 468.974 142.349 487.036 142.357 487.217L140.465 487.304C140.459 487.121 139.797 468.961 140.172 461.02L140.255 459.374C140.618 452.164 140.964 445.355 137.091 442.171C132.365 438.283 131.895 433.272 131.184 425.691L131.083 424.628C130.441 417.852 126.359 415.039 122.412 412.318C122.031 412.055 121.655 411.797 121.29 411.538C119.942 410.587 118.688 410.092 117.477 409.613C115.065 408.66 112.57 407.677 109.67 403.29C106.561 398.587 94.4109 390.06 89.0882 391.767C88.1703 392.061 86.931 392.779 86.7562 395.595C86.3585 401.991 88.1723 403.863 90.2732 406.031C91.9203 407.728 93.7842 409.653 94.3265 413.842C95.0516 419.457 97.0963 420.038 100.485 421.003C101.881 421.399 103.466 421.85 105.155 422.725C110.562 425.523 110.706 427.979 111.134 435.269C111.203 436.416 111.277 437.7 111.381 439.141C112.11 449.263 114.115 453.153 121.587 458.955C129.396 465.019 132.821 486.181 132.963 487.079L131.091 487.44Z" fill="#99BBDD"/>
<path d="M140.463 447.075C140.463 446.948 140.397 434.239 136.77 423.627C132.893 412.287 132.222 407.575 134.504 393.652C135.671 386.527 133.709 381.367 131.63 375.906C129.78 371.042 127.866 366.014 128.046 359.352C128.227 352.753 129.848 350.043 131.278 347.653C132.881 344.972 134.148 342.854 132.825 335.191C131.921 329.96 136.527 325.375 141.313 324.125C146.242 322.837 152.87 324.729 155.287 334.309C158.249 346.057 158.557 353.301 158.761 358.093C158.97 362.986 159.075 365.441 161.507 368.333C164.833 372.288 164.201 376.891 163.47 382.222C162.945 386.037 162.351 390.361 163.176 395.156L161.316 395.55C160.433 390.401 161.051 385.887 161.598 381.906C162.283 376.917 162.825 372.976 160.123 369.766C157.217 366.312 157.086 363.255 156.871 358.193C156.659 353.214 156.369 346.394 153.465 334.875C151.414 326.738 146.071 325.047 141.747 326.17C137.812 327.197 133.994 330.787 134.687 334.797C136.155 343.301 134.552 345.979 132.857 348.816C131.503 351.077 130.105 353.417 129.941 359.417C129.772 365.622 131.602 370.436 133.373 375.091C135.468 380.596 137.633 386.288 136.366 394.031C134.167 407.446 134.811 411.982 138.539 422.886C142.293 433.863 142.355 446.54 142.357 447.075H140.463Z" fill="#99BBDD"/>
<path d="M553.054 487.293L551.264 486.606C552.112 483.881 572.389 419.813 602.796 412.65L603.19 414.707C573.827 421.624 553.259 486.637 553.054 487.293Z" fill="#99BBDD"/>
<path d="M543.975 487.246L542.158 486.655C542.368 485.853 563.181 405.812 552.403 344.569L554.263 344.166C565.13 405.915 544.188 486.439 543.975 487.246Z" fill="#99BBDD"/>
<path d="M533.822 487.239C533.71 486.805 522.421 443.691 505.58 437.024C501.368 435.358 497.083 436.169 492.843 439.435L491.763 437.711C496.533 434.037 501.394 433.139 506.216 435.048C523.972 442.078 535.174 484.846 535.642 486.664L533.822 487.239Z" fill="#99BBDD"/>
<path d="M526.728 487.498C526.68 487.408 521.775 478.508 517.679 472.314C516.135 469.974 513.881 469.493 511.704 469.03C508.618 468.37 505.122 467.624 505.375 460.993L505.407 460.151C505.63 454.405 505.79 450.254 504.324 448.684C503.629 447.937 502.484 447.661 500.711 447.812C498.007 448.042 495.541 447.554 493.363 447.124C490.2 446.498 487.468 445.956 484.819 447.636C483.61 448.403 482.853 448.122 482.427 447.75C481.68 447.097 481.549 445.823 482.037 443.962C483.198 439.538 488.997 429.474 498.65 428.391C511.517 426.949 513.917 427.558 518.406 433.402C520.328 435.904 521.315 437.412 522.034 438.515C523.438 440.665 523.584 440.89 528.029 443.902C534.21 448.091 536.562 451.925 535.656 456.337C534.79 460.552 538.1 479.708 539.448 486.733L537.594 487.17C537.393 486.121 532.675 461.397 533.81 455.871C534.278 453.587 533.932 450.366 527.041 445.696C522.449 442.583 522.072 442.156 520.499 439.747C519.798 438.673 518.838 437.203 516.964 434.765C513.114 429.754 511.565 429.05 498.839 430.483C492.544 431.189 487.675 436.474 485.215 441.182C483.919 443.664 483.624 445.308 483.638 445.948C483.702 445.919 483.782 445.874 483.877 445.814C487.129 443.755 490.316 444.388 493.695 445.059C495.864 445.489 498.104 445.934 500.564 445.72C502.91 445.518 504.525 445.981 505.64 447.175C507.719 449.403 507.55 453.714 507.299 460.242L507.267 461.082C507.084 465.904 508.958 466.303 512.061 466.967C514.361 467.457 517.221 468.069 519.208 471.071C523.351 477.338 528.294 486.314 528.345 486.406L526.728 487.498Z" fill="#99BBDD"/>
<path d="M536.893 472.436L535.099 471.761C535.128 471.67 537.889 462.537 539 450.21C539.504 444.606 538.068 441.36 536.68 438.221C535.043 434.52 533.348 430.695 535.083 423.607C536.755 416.779 538.988 415.6 540.784 414.653C542.298 413.853 543.298 413.327 543.674 408.464C544.032 403.843 542.766 402.158 541.428 400.381C539.735 398.13 537.988 395.802 540.083 388.588C541.591 383.399 543.212 381.238 544.516 379.502C546.209 377.247 547.229 375.888 546.43 367.912C545.779 361.404 543.885 358.819 542.364 356.743C540.621 354.363 539.119 352.311 540.756 346.372C543.196 337.52 546.159 329.826 555.414 332.872C562.938 335.347 565.979 344.355 563.352 356.38C562.418 360.653 564.176 366.078 566.036 371.822C568.464 379.317 571.216 387.812 568.375 395.593C566.845 399.786 565.688 402.145 564.923 403.705C563.332 406.949 563.332 406.949 564.457 415.506C564.891 418.793 565.272 421.152 565.553 422.877C566.427 428.264 566.465 428.948 564.975 435.382L563.139 434.859C564.569 428.685 564.519 428.378 563.687 423.249C563.406 421.511 563.021 419.131 562.583 415.812C561.4 406.822 561.418 406.454 563.26 402.702C564.049 401.093 565.132 398.888 566.62 394.806C569.187 387.768 566.678 380.023 564.254 372.533C562.296 366.484 560.444 360.771 561.512 355.885C563.914 344.892 561.434 337.043 554.878 334.886C548.577 332.814 545.699 335.639 542.569 346.984C541.226 351.852 542.208 353.194 543.837 355.417C545.426 357.587 547.603 360.559 548.316 367.68C549.163 376.149 548.097 378.018 545.974 380.845C544.775 382.443 543.284 384.43 541.89 389.232C540.115 395.343 541.338 396.972 542.887 399.033C544.341 400.966 545.988 403.159 545.564 408.642C545.128 414.285 543.712 415.437 541.599 416.551C540.079 417.353 538.355 418.262 536.913 424.158C535.367 430.481 536.765 433.638 538.383 437.296C539.82 440.54 541.447 444.219 540.888 450.421C539.751 463.001 536.921 472.345 536.893 472.436Z" fill="#99BBDD"/>
<path d="M558.76 487.172L556.909 486.727C559.849 471.661 564.165 467.163 567.972 463.192C570.065 461.009 571.874 459.124 573.152 455.637C573.777 453.93 574.305 452.458 574.767 451.166C577.059 444.769 577.83 442.614 581.114 438.04C583.169 435.18 584.856 434.992 586.808 434.776C588.813 434.554 591.307 434.277 595.616 430.612C600 426.883 599.884 424.296 599.8 422.409C599.725 420.749 599.641 418.866 602.794 418.127C604.443 417.741 606.544 417.692 608.579 417.643C611.71 417.57 615.26 417.487 616.105 416.101C616.378 415.656 616.36 414.963 616.049 414.047C615.44 412.242 614.161 410.959 612.247 410.233C608.611 408.854 603.148 409.803 599.247 412.481C596.166 414.595 593.846 413.726 591.797 412.96C589.411 412.066 587.35 411.295 583.707 414.499C580.706 417.142 579.603 420.236 578.631 422.968C577.322 426.646 576.058 430.122 570.571 429.821C566.59 429.592 565.674 432.453 564.302 437.931C563.356 441.708 562.285 445.988 559.379 449.49C553.094 457.067 547.446 486.86 547.39 487.161L545.534 486.733C545.769 485.486 551.347 456.069 557.983 448.069C560.58 444.938 561.587 440.919 562.474 437.37C563.756 432.248 564.969 427.411 570.661 427.723C574.841 427.965 575.59 425.784 576.868 422.197C577.876 419.368 579.131 415.847 582.528 412.855C586.977 408.94 589.857 410.019 592.4 410.97C594.368 411.705 595.925 412.291 598.247 410.696C602.66 407.666 608.663 406.657 612.855 408.245C615.296 409.17 617.011 410.921 617.818 413.31C618.357 414.903 618.305 416.237 617.668 417.28C616.272 419.564 612.552 419.65 608.613 419.744C606.667 419.789 604.654 419.835 603.182 420.183C601.609 420.551 601.619 420.785 601.688 422.304C601.786 424.525 601.937 427.881 596.765 432.281C592.028 436.309 589.116 436.632 586.991 436.866C585.219 437.062 584.149 437.183 582.592 439.35C579.483 443.679 578.798 445.596 576.522 451.941C576.056 453.238 575.528 454.715 574.901 456.426C573.467 460.34 571.424 462.47 569.263 464.723C565.664 468.484 561.576 472.744 558.76 487.172Z" fill="#99BBDD"/>
<path d="M575.865 495.521H115.137C115.137 490.089 119.106 485.686 124.003 485.686H567C571.897 485.686 575.865 490.089 575.865 495.521Z" fill="#576C89"/>
<path d="M393.413 238.851C384.242 238.851 375.32 235.702 367.703 229.676C358.04 222.029 351.641 210.669 349.682 197.684C347.724 184.699 350.441 171.645 357.333 160.926C364.226 150.207 374.468 143.109 386.174 140.937C397.88 138.764 409.648 141.777 419.311 149.423C428.975 157.067 435.374 168.43 437.332 181.415C439.291 194.4 436.573 207.454 429.682 218.172C422.788 228.891 412.547 235.99 400.841 238.162C398.36 238.623 395.877 238.851 393.413 238.851ZM393.598 142.944C391.266 142.944 388.92 143.158 386.576 143.595C375.508 145.649 365.827 152.36 359.311 162.492C352.796 172.625 350.227 184.966 352.078 197.24C353.93 209.517 359.98 220.256 369.115 227.483C376.493 233.321 385.013 236.128 393.451 236.128C406.579 236.128 419.518 229.339 427.705 216.608C434.221 206.475 436.79 194.137 434.938 181.86C433.086 169.584 427.036 158.845 417.901 151.618C410.703 145.921 402.265 142.944 393.598 142.944Z" fill="#99BBDD"/>
<path d="M393.459 228.967C386.317 228.967 379.11 226.592 372.863 221.65C356.905 209.024 353.183 184.351 364.566 166.65C375.948 148.948 398.191 144.82 414.149 157.446C421.88 163.562 427 172.652 428.567 183.041C430.134 193.431 427.96 203.873 422.447 212.449C415.519 223.221 404.568 228.967 393.459 228.967ZM393.553 152.825C383.203 152.825 373 158.177 366.546 168.216C355.941 184.708 359.41 207.694 374.277 219.458C380.094 224.061 386.811 226.273 393.465 226.273C403.815 226.273 414.019 220.922 420.472 210.882C431.078 194.391 427.609 171.405 412.741 159.641C406.922 155.038 400.206 152.825 393.553 152.825Z" fill="#99BBDD"/>
<path d="M409.479 164.703C407.32 162.916 404.956 161.497 402.453 160.478L403.289 157.947C406.013 159.055 408.584 160.599 410.932 162.542L409.479 164.703Z" fill="#99BBDD"/>
<path d="M371.017 171.754L369.039 170.19C372.138 165.371 376.336 161.55 381.177 159.139C385.875 156.802 391.071 155.833 396.199 156.339L395.984 159.023C386.254 158.061 376.683 162.94 371.017 171.754Z" fill="#99BBDD"/>
<path d="M434.042 233.278L423.22 224.716L424.63 222.522L433.474 229.52L439.849 219.605L431.168 212.736L432.578 210.542L443.237 218.977L434.042 233.278Z" fill="#99BBDD"/>
<path d="M497.115 288.014L430.005 234.914L443.318 214.213L510.428 267.313L497.115 288.014ZM433.393 234.283L496.549 284.253L507.04 267.939L443.884 217.97L433.393 234.283Z" fill="#99BBDD"/>
<path d="M364.409 430.866H507.745C507.745 430.866 505.242 442.374 505.242 454.884C505.242 467.033 507.745 478.902 507.745 478.902H364.409C359.325 478.902 355.202 474.33 355.202 468.689V441.091C355.202 435.438 359.325 430.866 364.409 430.866Z" fill="#FAE0B2"/>
<path d="M509.679 424.334C511.308 424.334 512.624 425.804 512.624 427.6C512.624 428.505 512.3 429.32 511.76 429.908C511.23 430.508 510.494 430.866 509.679 430.866H507.745H364.409C359.325 430.866 355.202 435.438 355.202 441.088V468.687C355.202 474.326 359.323 478.9 364.409 478.9H507.745H509.679C511.308 478.9 512.624 480.359 512.624 482.166C512.624 483.071 512.3 483.875 511.76 484.474C511.23 485.062 510.494 485.432 509.679 485.432H364.409C356.065 485.432 349.315 477.93 349.315 468.689V441.079C349.315 431.835 356.067 424.336 364.409 424.336H509.679V424.334Z" fill="#184655"/>
<path d="M373.863 440.164C382.352 439.743 390.84 439.46 399.326 439.317C407.814 439.143 416.303 439.096 424.789 439.074C433.277 439.094 441.765 439.139 450.251 439.313C458.74 439.455 467.228 439.738 475.714 440.161C467.226 440.585 458.738 440.868 450.251 441.01C441.763 441.184 433.275 441.229 424.789 441.249C416.301 441.226 407.812 441.18 399.326 441.006C390.838 440.868 382.352 440.585 373.863 440.164Z" fill="#E5BD83"/>
<path d="M368.555 454.884C371.762 454.434 374.968 454.198 378.176 454.037C381.384 453.864 384.589 453.817 387.797 453.795C391.005 453.815 394.21 453.859 397.418 454.033C400.626 454.193 403.831 454.43 407.039 454.882C403.831 455.334 400.626 455.573 397.418 455.731C394.21 455.904 391.005 455.949 387.797 455.969C384.589 455.947 381.384 455.9 378.176 455.726C374.968 455.57 371.762 455.334 368.555 454.884Z" fill="#E5BD83"/>
<path d="M393.106 469.972C396.313 469.522 399.519 469.286 402.727 469.125C405.934 468.952 409.14 468.905 412.348 468.885C415.555 468.905 418.761 468.949 421.969 469.123C425.176 469.284 428.382 469.52 431.59 469.972C428.382 470.424 425.176 470.663 421.969 470.821C418.761 470.995 415.555 471.042 412.348 471.059C409.14 471.037 405.934 470.99 402.727 470.816C399.519 470.658 396.313 470.424 393.106 469.972Z" fill="#E5BD83"/>
<path d="M413.356 461.14C420.768 460.719 428.179 460.436 435.589 460.294C443 460.12 450.412 460.073 457.822 460.053C465.233 460.073 472.645 460.118 480.055 460.291C487.466 460.434 494.878 460.717 502.287 461.14C494.876 461.564 487.464 461.847 480.055 461.989C472.643 462.163 465.231 462.207 457.822 462.228C450.41 462.205 442.998 462.158 435.589 461.987C428.177 461.844 420.766 461.561 413.356 461.14Z" fill="#E5BD83"/>
<path d="M398.414 483.957C394.074 474.865 394.074 463.977 398.414 454.884C390.231 454.884 382.046 454.884 373.863 454.884C369.523 463.977 369.523 474.865 373.863 483.957C376.774 481.482 380.006 478.875 383.559 476.206C388.189 478.875 393.142 481.482 398.414 483.957Z" fill="#50BFA5"/>
<path d="M548.109 376.86H363.977V424.334H548.109V376.86Z" fill="#FE875E"/>
<path d="M393.037 376.86H382.141V424.334H393.037V376.86Z" fill="#F7A491"/>
<path d="M519.048 424.335H529.944V376.861H519.048V424.335Z" fill="#F7A491"/>
<path d="M363.977 396.733C363.977 396.733 350.044 404.186 347.804 424.334L353.776 418.813L355.891 424.334C355.891 424.334 357.259 407.22 363.977 400.597V396.733Z" fill="#EFEFEF"/>
<path d="M404.173 351.801C404.173 351.801 408.403 362.698 404.016 376.08L387.361 375.068L345.589 372.542V372.531C345.589 372.531 346.854 367.25 346.854 361.067C346.854 355.384 345.589 349.593 345.589 349.593V349.582L386.762 351.139L404.173 351.801Z" fill="#FAE0B2"/>
<path d="M344.713 372.486L345.587 372.539L387.359 375.066L404.014 376.077C408.401 362.698 404.171 351.799 404.171 351.799L386.758 351.135L345.585 349.578L344.592 349.544C343.267 349.491 342.226 348.292 342.226 346.822C342.226 345.331 343.325 344.11 344.661 344.11C344.701 344.11 344.729 344.11 344.769 344.11L406.613 346.648C406.613 346.648 414.78 361.694 406.613 381.171L344.476 377.927C343.14 377.851 342.1 376.599 342.14 375.106C342.188 373.636 343.289 372.481 344.605 372.481C344.645 372.486 344.675 372.486 344.713 372.486Z" fill="#3C8F7C"/>
<path d="M344.771 344.115L514.246 341.742L513.313 341.784L406.615 346.652L344.771 344.115Z" fill="#3C8F7C"/>
<path d="M408.684 346.556L513.313 341.784C518.525 341.554 522.871 346.171 522.901 351.964L522.97 366.421C523 371.951 519.073 376.503 514.098 376.71L406.615 381.173C414.782 361.696 406.615 346.65 406.615 346.65L408.684 346.556Z" fill="#184655"/>
<path d="M403.861 361.137C400.632 361.388 397.414 361.426 394.198 361.388C390.982 361.364 387.773 361.212 384.565 361.036C381.359 360.82 378.154 360.575 374.956 360.205C371.756 359.849 368.561 359.414 365.377 358.764C368.607 358.51 371.827 358.47 375.04 358.507C378.256 358.532 381.466 358.683 384.674 358.862C387.879 359.08 391.085 359.325 394.283 359.695C397.482 360.056 400.678 360.49 403.861 361.137Z" fill="#E5BD83"/>
<path d="M369.732 366.845C366.157 367.101 362.607 366.952 359.062 366.709C355.521 366.424 351.984 366.04 348.473 365.249C352.048 364.991 355.597 365.138 359.143 365.385C362.686 365.675 366.221 366.056 369.732 366.845Z" fill="#E5BD83"/>
<path d="M375.462 382.463C372.2 377.134 372.532 364.479 376.067 359.367C382.476 359.575 388.651 360.45 395.062 360.658C391.525 365.766 391.432 377.751 394.694 383.082C390.703 381.5 386.837 379.457 383.233 377.156C380.425 379.25 377.883 381.088 375.462 382.463Z" fill="#F47458"/>
<path d="M415.644 312.221L418.673 312.519C411.136 313.128 405.476 320.386 406.025 328.748L406.328 333.38C406.786 340.356 411.436 345.886 417.349 347.156L368.659 342.903C360.543 342.043 354.621 334.011 355.445 325.018L355.674 322.53C356.487 313.658 363.559 307.163 371.57 307.943H371.58L415.644 312.221Z" fill="#355389"/>
<path d="M532.862 309.451L418.675 312.521L415.644 312.221L371.578 307.943H371.568L371.039 307.892L532.862 309.451Z" fill="#355389"/>
<path d="M529.586 314.56L418.926 317.958C416.429 318.19 414.173 319.569 412.643 321.821C411.321 323.782 410.779 326.255 410.944 328.708L411.231 332.981C411.558 337.963 415.334 341.931 419.83 342.005C420.085 342.009 420.35 341.991 420.605 341.973L420.723 341.965L529.767 339.041L532.476 338.966C533.754 338.932 534.798 340.091 534.78 341.508L534.774 341.953C534.756 343.292 533.79 344.377 532.583 344.411L420.966 347.403C419.729 347.503 418.512 347.419 417.347 347.16C411.434 345.89 406.786 340.36 406.326 333.385L406.023 328.753C405.474 320.393 411.134 313.134 418.671 312.524L532.86 309.454C534.137 309.42 535.182 310.57 535.164 311.996C535.146 313.335 534.19 314.42 532.982 314.453L529.586 314.56Z" fill="#86B1F2"/>
<path d="M529.769 339.039L420.725 341.962L420.607 341.971C420.352 341.989 420.087 342.007 419.832 342.002C415.336 341.931 411.56 337.961 411.233 332.979L410.946 328.706C410.781 326.253 411.323 323.78 412.645 321.819C414.175 319.569 416.431 318.19 418.928 317.956L529.588 314.558C529.546 314.774 528.156 322.08 528.094 326.772C528.031 331.444 529.769 339.039 529.769 339.039Z" fill="#FAE0B2"/>
<path d="M420.529 325.047C423.722 324.45 426.922 324.069 430.126 323.764C433.329 323.443 436.537 323.252 439.745 323.084C442.954 322.958 446.166 322.857 449.382 322.884C452.597 322.897 455.815 322.989 459.041 323.294C455.847 323.893 452.648 324.276 449.444 324.582C446.24 324.9 443.033 325.094 439.825 325.259C436.615 325.384 433.404 325.484 430.188 325.455C426.972 325.442 423.754 325.353 420.529 325.047Z" fill="#E5BD83"/>
<path d="M446.939 334.96C450.133 334.363 453.333 333.982 456.536 333.676C459.74 333.358 462.948 333.164 466.155 332.997C469.365 332.87 472.577 332.77 475.792 332.796C479.008 332.81 482.226 332.901 485.452 333.206C482.26 333.806 479.058 334.189 475.855 334.494C472.651 334.813 469.443 335.007 466.236 335.171C463.026 335.296 459.814 335.396 456.599 335.367C453.383 335.354 450.165 335.265 446.939 334.96Z" fill="#E5BD83"/>
<path d="M451.316 353.432C455.741 346.839 456.004 330.542 451.754 323.809C443.571 323.677 436.302 324.649 428.119 324.517C432.371 331.248 431.194 346.445 426.767 353.038C431.933 351.266 436.967 348.9 441.675 346.189C445.15 349.032 448.299 351.532 451.316 353.432Z" fill="#50BFA5"/>
<path d="M475.208 328.543C479.603 327.946 484.003 327.563 488.406 327.253C492.809 326.932 497.214 326.738 501.621 326.569C506.027 326.44 510.436 326.34 514.849 326.364C519.26 326.375 523.675 326.464 528.094 326.77C523.699 327.371 519.298 327.754 514.895 328.062C510.492 328.383 506.088 328.577 501.681 328.744C497.274 328.871 492.865 328.971 488.452 328.944C484.042 328.935 479.629 328.846 475.208 328.543Z" fill="#E5BD83"/>
<path d="M281.252 318.497C281.252 369.108 281.252 419.72 281.252 470.331H183.069V321.665V318.497H281.252Z" fill="#FAE0B2"/>
<path d="M364.359 297.442C364.359 346.637 364.359 395.831 364.359 445.025C335.52 441.951 311.248 426.711 282.542 468.433C282.108 469.047 281.686 469.689 281.252 470.331C281.252 419.72 281.252 369.108 281.252 318.497C310.525 274.423 335.086 290.077 364.359 293.191C364.359 294.608 364.359 296.025 364.359 297.442Z" fill="#FAE0B2"/>
<path d="M369.734 452.698V466.267C369.734 466.267 361.503 460.385 332.17 457.671C302.836 454.958 284.916 477.108 284.916 477.108C279.517 482.308 274.323 477.108 274.323 477.108H187.552L183.069 470.331H281.252C281.686 469.676 282.12 469.047 282.542 468.433C311.405 426.938 340.895 449.637 369.734 452.698Z" fill="#E5BD83"/>
<path d="M282.542 468.433C311.248 426.711 335.52 441.951 364.359 445.025C364.359 395.831 364.359 346.637 364.359 297.442H369.734C369.734 305.437 369.734 313.524 369.734 321.665C369.734 365.044 369.734 410.095 369.734 452.698C340.895 449.637 311.405 426.938 282.542 468.433Z" fill="#F7CC7F"/>
<path d="M387.678 465.251V316.585L369.734 321.665C369.734 365.044 369.734 410.095 369.734 452.698V466.267C369.734 466.267 361.503 460.385 332.17 457.671C302.836 454.958 284.916 477.108 284.916 477.108C279.517 482.309 274.323 477.108 274.323 477.108H187.552L183.069 470.331V321.665H173.296V486.145H272.286C272.286 486.145 280.023 496.987 289.809 486.145L387.678 465.251Z" fill="#466EB6"/>
<path d="M290.821 466.06C292.85 463.29 295.332 460.949 297.976 458.897C300.615 456.827 303.493 455.12 306.502 453.795C309.513 452.482 312.642 451.446 315.854 450.985C317.447 450.673 319.064 450.595 320.672 450.493C321.476 450.424 322.283 450.502 323.087 450.531C323.89 450.562 324.692 450.611 325.491 450.671C322.289 450.954 319.116 451.206 316.019 451.997C312.911 452.683 309.88 453.728 306.952 455.033C304.003 456.297 301.189 457.925 298.482 459.752C297.124 460.664 295.814 461.659 294.535 462.709C293.245 463.745 292.012 464.866 290.821 466.06Z" fill="#B28856"/>
<path d="M369.734 462.702C368.316 461.916 366.862 461.241 365.371 460.67C363.901 460.051 362.399 459.529 360.892 459.035C357.869 458.079 354.81 457.277 351.723 456.615C348.646 455.898 345.525 455.441 342.405 454.929C339.28 454.461 336.138 454.129 332.985 453.721C334.57 453.654 336.155 453.665 337.745 453.643C339.328 453.728 340.917 453.786 342.502 453.906C345.669 454.182 348.833 454.608 351.956 455.305C355.075 456.007 358.177 456.856 361.177 458.061C364.16 459.275 367.133 460.659 369.734 462.702Z" fill="#B28856"/>
<path d="M281.248 475.411C282.024 472.9 283.255 470.574 284.657 468.419C286.059 466.254 287.688 464.28 289.419 462.435C291.197 460.646 293.059 458.955 295.071 457.511C296.047 456.742 297.116 456.13 298.14 455.452C299.205 454.848 300.275 454.258 301.362 453.719C299.414 455.252 297.479 456.753 295.62 458.358C294.698 459.173 293.758 459.953 292.88 460.822C291.962 461.635 291.114 462.537 290.243 463.406C288.535 465.191 286.914 467.071 285.396 469.056C283.902 471.062 282.445 473.125 281.248 475.411Z" fill="#B28856"/>
<path d="M197.483 343.591H201.584L206.312 358.761H207.126V360.671H200.208V358.761H201.518L200.857 356.484H195.633L194.94 358.761H196.26V360.671H191.807V358.761H192.797L197.483 343.591ZM198.298 347.913L196.34 354.232H200.188L198.298 347.913Z" fill="#171C51"/>
<path d="M274.933 343.635H220.244V345.669H274.933V343.635Z" fill="#171C51"/>
<path d="M274.935 350.921H213.778V352.955H274.935V350.921Z" fill="#171C51"/>
<path d="M274.935 358.207H213.778V360.241H274.935V358.207Z" fill="#171C51"/>
<path d="M274.933 374.311H200.618V376.345H274.933V374.311Z" fill="#171C51"/>
<path d="M274.935 381.598H191.831V383.633H274.935V381.598Z" fill="#171C51"/>
<path d="M274.935 388.884H191.831V390.918H274.935V388.884Z" fill="#171C51"/>
<path d="M274.933 401.445H200.618V403.48H274.933V401.445Z" fill="#171C51"/>
<path d="M274.935 408.733H191.831V410.767H274.935V408.733Z" fill="#171C51"/>
<path d="M274.935 416.019H191.831V418.053H274.935V416.019Z" fill="#171C51"/>
<path d="M274.933 428.583H200.618V430.617H274.933V428.583Z" fill="#171C51"/>
<path d="M274.935 435.87H191.831V437.904H274.935V435.87Z" fill="#171C51"/>
<path d="M274.935 443.156H191.831V445.19H274.935V443.156Z" fill="#171C51"/>
<path d="M286.491 351.191C286.491 350.554 286.491 349.919 286.491 349.281C286.818 348.862 287.147 348.455 287.479 348.054C287.479 343.642 287.479 339.229 287.479 334.817C287.147 335.216 286.82 335.626 286.491 336.045C286.491 335.399 286.491 334.753 286.491 334.111C288.766 331.203 291.13 328.768 293.567 326.814C295.141 325.555 296.349 325.087 297.164 325.199C297.98 325.317 298.391 326.001 298.391 327.182C298.391 328.098 298.12 328.971 297.582 329.838C297.046 330.707 296.268 331.522 295.264 332.377C296.501 331.669 297.494 331.609 298.227 332.074C298.962 332.545 299.329 333.474 299.329 334.802C299.329 336.455 298.833 337.99 297.857 339.512C296.881 341.038 295.555 342.337 293.916 343.616C291.357 345.616 288.875 348.145 286.491 351.191ZM291.727 334.343C291.932 334.158 292.135 333.973 292.34 333.792C292.922 333.275 293.378 332.741 293.703 332.144C294.025 331.551 294.189 330.949 294.189 330.337C294.189 329.708 294.025 329.356 293.703 329.292C293.38 329.227 292.902 329.452 292.277 330.002C292.092 330.163 291.91 330.332 291.727 330.497C291.729 331.78 291.729 333.061 291.727 334.343ZM291.727 336.424C291.727 338.152 291.727 339.886 291.727 341.615C291.725 342.241 291.825 342.613 292.022 342.729C292.219 342.847 292.53 342.713 292.956 342.359C293.557 341.858 294.033 341.169 294.374 340.28C294.716 339.391 294.888 338.38 294.888 337.235C294.888 336.134 294.665 335.45 294.222 335.205C293.776 334.962 293.141 335.171 292.319 335.893C292.121 336.067 291.924 336.243 291.727 336.424Z" fill="#171C51"/>
<path d="M358.343 322.323C344.221 323.113 326.399 316.724 309.748 322.434C309.748 321.757 309.748 321.079 309.748 320.4C326.399 314.694 344.223 321.077 358.343 320.288C358.343 320.966 358.343 321.643 358.343 322.323Z" fill="#171C51"/>
<path d="M358.343 329.608C342.554 330.069 322.133 320.87 303.899 330.713C303.899 330.036 303.899 329.359 303.899 328.679C322.135 318.836 342.554 328.035 358.343 327.574C358.343 328.253 358.343 328.931 358.343 329.608Z" fill="#171C51"/>
<path d="M358.343 336.894C342.554 337.355 322.133 328.158 303.899 337.999C303.899 337.321 303.899 336.642 303.899 335.965C322.135 326.124 342.554 335.321 358.343 334.859C358.343 335.539 358.343 336.219 358.343 336.894Z" fill="#171C51"/>
<path d="M358.343 352.998C339.155 352.681 313.13 337.217 292.498 360.457C292.498 359.777 292.498 359.105 292.498 358.423C313.132 335.185 339.155 350.649 358.343 350.963C358.343 351.641 358.343 352.32 358.343 352.998Z" fill="#171C51"/>
<path d="M358.343 360.285C336.886 359.149 306.884 339.766 285.424 375.556C285.424 374.879 285.424 374.202 285.424 373.522C306.882 337.731 336.886 357.117 358.343 358.251C358.343 358.929 358.343 359.608 358.343 360.285Z" fill="#171C51"/>
<path d="M358.343 367.571C336.886 366.437 306.884 347.051 285.424 382.842C285.424 382.162 285.424 381.487 285.424 380.808C306.882 345.017 336.886 364.403 358.343 365.537C358.343 366.214 358.343 366.894 358.343 367.571Z" fill="#171C51"/>
<path d="M358.343 380.132C339.155 379.821 313.13 364.349 292.498 387.592C292.498 386.914 292.498 386.237 292.498 385.558C313.132 362.32 339.155 377.784 358.343 378.098C358.343 378.778 358.343 379.455 358.343 380.132Z" fill="#171C51"/>
<path d="M358.343 387.418C336.886 386.284 306.884 366.898 285.424 402.689C285.424 402.011 285.424 401.334 285.424 400.655C306.882 364.864 336.886 384.25 358.343 385.384C358.343 386.066 358.343 386.741 358.343 387.418Z" fill="#171C51"/>
<path d="M358.343 394.706C336.886 393.572 306.884 374.186 285.424 409.977C285.424 409.299 285.424 408.62 285.424 407.942C306.882 372.152 336.886 391.54 358.343 392.672C358.343 393.349 358.343 394.028 358.343 394.706Z" fill="#171C51"/>
<path d="M358.343 407.269C339.155 406.958 313.13 391.491 292.498 414.729C292.498 414.052 292.498 413.374 292.498 412.695C313.132 389.454 339.155 404.921 358.343 405.235C358.343 405.917 358.343 406.592 358.343 407.269Z" fill="#171C51"/>
<path d="M358.343 414.557C336.886 413.423 306.884 394.037 285.424 429.828C285.424 429.148 285.424 428.473 285.424 427.794C306.882 392.003 336.886 411.391 358.343 412.523C358.343 413.2 358.343 413.878 358.343 414.557Z" fill="#171C51"/>
<path d="M358.343 421.841C336.886 420.707 306.884 401.321 285.424 437.111C285.424 436.434 285.424 435.754 285.424 435.077C306.882 399.289 336.886 418.675 358.343 419.806C358.343 420.486 358.343 421.163 358.343 421.841Z" fill="#171C51"/>
<path d="M281.252 318.497C281.999 330.992 282.391 343.486 282.658 355.981C282.825 362.228 282.861 368.476 282.96 374.723L283.06 393.465L282.966 412.207C282.865 418.454 282.833 424.701 282.664 430.949C282.399 443.443 282.005 455.938 281.254 468.433C280.501 455.938 280.109 443.443 279.844 430.949C279.676 424.701 279.643 418.454 279.543 412.207L279.449 393.465L279.549 374.723C279.647 368.476 279.684 362.228 279.85 355.981C280.111 343.486 280.503 330.992 281.252 318.497Z" fill="#F7CC7F"/>
</g>
<defs>
<clipPath id="clip0_10_49">
<rect width="703" height="557" fill="white"/>
</clipPath>
</defs>
</svg>
