<svg width="179" height="31" viewBox="0 0 179 31" fill="none" xmlns="http://www.w3.org/2000/svg">
<path d="M100.407 6.72495C100.407 6.67254 100.407 6.61609 100.407 6.53949C100.358 6.57174 100.33 6.58787 100.306 6.60803C99.4084 7.24101 98.4462 7.75304 97.4393 8.1925C96.5421 8.58358 95.6367 8.94644 94.7069 9.28913C94.6948 9.30123 94.6907 9.31332 94.6866 9.32945C94.6217 9.31332 94.5689 9.33348 94.5161 9.34961C94.1873 9.43428 93.8706 9.55523 93.5539 9.66812C92.5917 10.0189 91.6335 10.3737 90.6754 10.7406C89.36 11.2445 88.0527 11.7727 86.8225 12.4661C86.1891 12.8209 85.6004 13.2362 85.0889 13.7523C84.8087 14.0345 84.5854 14.3691 84.3378 14.6957C84.2972 15.0384 84.2769 15.365 84.2769 15.6996C84.2769 17.7235 84.2769 19.7474 84.2728 21.7714C84.2728 22.4648 84.4312 23.118 84.7194 23.7348C84.7235 23.7469 84.7235 23.7631 84.7275 23.7752C85.028 24.396 85.4259 24.9323 85.9252 25.3919C86.0795 25.533 86.2338 25.6701 86.3962 25.8071C86.4165 25.8071 86.4327 25.8071 86.4408 25.7951C86.38 25.6177 86.3312 25.4524 86.3069 25.279C86.2094 24.6379 86.2866 24.0251 86.5829 23.4486C86.8144 22.997 87.1554 22.6382 87.5452 22.3237C88.2638 21.7351 89.092 21.34 89.9365 20.9812C90.7931 20.6143 91.6782 20.32 92.5592 20.0216C93.9274 19.5539 95.3038 19.1145 96.6435 18.5702C97.691 18.1428 98.6776 17.6147 99.4855 16.8123C100.07 16.2318 100.395 15.5424 100.395 14.7118C100.407 12.0428 100.407 9.38186 100.407 6.72495Z" fill="#114FEE"/>
<path opacity="0.8" d="M94.715 9.48668C94.715 9.43427 94.7069 9.38589 94.6947 9.32541C94.6988 9.32541 94.7029 9.32138 94.7069 9.32138C94.711 9.30122 94.715 9.28912 94.715 9.2609C94.7069 9.04319 94.6907 8.8416 94.6947 8.64002C94.7029 7.74094 94.6704 6.84186 94.6582 5.94682C94.6582 5.80167 94.6541 5.79764 94.5242 5.88231C93.9112 6.28145 93.2819 6.6564 92.6323 6.99104C91.5807 7.53129 90.5251 8.06751 89.4696 8.60776C88.7347 8.98674 88.0161 9.38992 87.3381 9.87373C86.721 10.3132 86.1526 10.8091 85.6654 11.3897C85.1335 12.0226 84.7844 12.7524 84.5448 13.5426C84.4352 13.9135 84.354 14.2885 84.3459 14.6755C84.3418 14.6796 84.3378 14.6876 84.3337 14.6916C84.2931 15.0343 84.2728 15.3609 84.2728 15.6955C84.2728 17.7195 84.2728 19.7434 84.2687 21.7673C84.2687 22.4689 84.4311 23.1301 84.7235 23.751C84.7356 23.4123 84.7884 23.0938 84.8371 22.7712C85.0198 21.6141 85.5964 20.6949 86.5301 19.9853C87.2934 19.4047 88.1582 19.0096 89.0392 18.6548C90.042 18.2476 91.0611 17.8767 92.0233 17.3768C92.6851 17.0341 93.2819 16.6188 93.765 16.0503C94.0939 15.6673 94.3293 15.2359 94.4836 14.7562C94.6582 14.2199 94.7029 13.6676 94.7029 13.1072C94.7232 11.8977 94.715 10.6922 94.715 9.48668Z" fill="#57E1FF"/>
<path d="M15.9516 16.5301C15.838 18.0743 15.2655 19.2878 14.2302 20.1708C13.1949 21.0577 11.8348 21.5012 10.1418 21.5012C8.29048 21.5012 6.83701 20.8844 5.77736 19.6466C4.71771 18.4089 4.18585 16.7115 4.18585 14.5546V13.6797C4.18585 12.3008 4.42945 11.0873 4.92071 10.039C5.4079 8.99076 6.11028 8.18442 7.01565 7.624C7.92508 7.06359 8.98068 6.78137 10.1824 6.78137C11.847 6.78137 13.1909 7.22486 14.2059 8.11184C15.2249 8.99883 15.8136 10.2406 15.9719 11.8412H13C12.927 10.9179 12.6671 10.2446 12.2205 9.82936C11.7739 9.41409 11.0959 9.20444 10.1824 9.20444C9.19179 9.20444 8.44882 9.55924 7.95756 10.2608C7.46631 10.9663 7.21053 12.0589 7.19835 13.5426V14.6271C7.19835 16.1753 7.43383 17.3082 7.90884 18.0218C8.3798 18.7355 9.12683 19.0943 10.1459 19.0943C11.0634 19.0943 11.7496 18.8846 12.2043 18.4694C12.6549 18.0541 12.9148 17.409 12.9838 16.5341H15.9516V16.5301Z" fill="#333333"/>
<path d="M17.2712 15.877C17.2712 14.8207 17.4741 13.8772 17.8842 13.0507C18.2943 12.2242 18.883 11.5832 19.6544 11.1316C20.4257 10.6801 21.3189 10.4543 22.3339 10.4543C23.7793 10.4543 24.9607 10.8937 25.8783 11.7727C26.7918 12.6516 27.3033 13.845 27.4089 15.3569L27.4292 16.0866C27.4292 17.7195 26.9704 19.0298 26.0529 20.0176C25.1353 21.0053 23.9011 21.4972 22.3542 21.4972C20.8074 21.4972 19.5732 21.0053 18.6515 20.0216C17.7299 19.0378 17.2671 17.6993 17.2671 16.006V15.877H17.2712ZM20.1334 16.0826C20.1334 17.0946 20.3242 17.8686 20.7099 18.4049C21.0916 18.9411 21.6397 19.2072 22.3542 19.2072C23.0485 19.2072 23.5885 18.9411 23.9782 18.4129C24.368 17.8848 24.5629 17.0381 24.5629 15.8729C24.5629 14.8811 24.368 14.1111 23.9782 13.5668C23.5885 13.0225 23.0404 12.7483 22.3339 12.7483C21.6316 12.7483 21.0916 13.0185 20.7099 13.5628C20.3283 14.103 20.1334 14.9456 20.1334 16.0826Z" fill="#333333"/>
<path d="M31.8302 10.6518L31.9195 11.8815C32.6868 10.93 33.714 10.4543 35.001 10.4543C36.1378 10.4543 36.9823 10.7849 37.5385 11.4501C38.0947 12.1113 38.3789 13.1031 38.3911 14.4215V21.3037H35.5247V14.49C35.5247 13.8853 35.3908 13.4499 35.1269 13.1757C34.863 12.9015 34.4245 12.7685 33.8074 12.7685C32.9994 12.7685 32.3945 13.1112 31.9926 13.7926V21.3037H29.1262V10.6518H31.8302Z" fill="#333333"/>
<path d="M43.2022 10.6518L43.2915 11.8815C44.0588 10.93 45.086 10.4543 46.373 10.4543C47.5098 10.4543 48.3543 10.7849 48.9105 11.4501C49.4667 12.1113 49.7509 13.1031 49.7631 14.4215V21.3037H46.8967V14.49C46.8967 13.8853 46.7628 13.4499 46.4989 13.1757C46.235 12.9015 45.7965 12.7685 45.1794 12.7685C44.3714 12.7685 43.7665 13.1112 43.3646 13.7926V21.3037H40.4982V10.6518H43.2022Z" fill="#333333"/>
<path d="M56.868 21.4972C55.2968 21.4972 54.0139 21.0174 53.0273 20.0619C52.0407 19.1024 51.5454 17.8283 51.5454 16.2318V15.9576C51.5454 14.8892 51.7525 13.9337 52.1706 13.087C52.5888 12.2444 53.1775 11.5953 53.9408 11.1397C54.7041 10.6841 55.5729 10.4543 56.5513 10.4543C58.017 10.4543 59.1741 10.9139 60.0145 11.8331C60.859 12.7524 61.2772 14.0546 61.2772 15.7399V16.901H54.4483C54.5417 17.5985 54.8218 18.1549 55.2846 18.5742C55.7475 18.9935 56.3402 19.2031 57.0548 19.2031C58.1591 19.2031 59.0198 18.808 59.641 18.0138L61.0498 19.5781C60.6194 20.1829 60.0389 20.6546 59.304 20.9892C58.5692 21.3238 57.7612 21.4972 56.868 21.4972ZM56.5432 12.7483C55.9748 12.7483 55.512 12.9378 55.1588 13.3208C54.8056 13.7039 54.5782 14.2522 54.4808 14.9618H58.4636V14.736C58.4514 14.103 58.2768 13.6152 57.948 13.2684C57.6191 12.9217 57.1482 12.7483 56.5432 12.7483Z" fill="#333333"/>
<path d="M67.3671 19.2072C67.8949 19.2072 68.3252 19.062 68.6541 18.7758C68.983 18.4855 69.1575 18.1025 69.1697 17.6227H71.8574C71.8493 18.3444 71.6544 19.0056 71.2647 19.6063C70.8749 20.207 70.343 20.6747 69.665 21.0053C68.987 21.3359 68.24 21.5012 67.4199 21.5012C65.8852 21.5012 64.6794 21.0174 63.7903 20.0498C62.9052 19.0822 62.4626 17.7437 62.4626 16.0382V15.8528C62.4626 14.2119 62.9011 12.9015 63.7821 11.9259C64.6591 10.9502 65.8649 10.4583 67.3996 10.4583C68.7394 10.4583 69.8153 10.8373 70.6272 11.5953C71.4352 12.3532 71.8493 13.3612 71.8615 14.6231H69.1738C69.1616 14.0707 68.987 13.6192 68.6582 13.2725C68.3293 12.9257 67.8908 12.7524 67.3508 12.7524C66.685 12.7524 66.1775 12.9943 65.8405 13.4781C65.4995 13.9619 65.329 14.744 65.329 15.8286V16.1229C65.329 17.2195 65.4995 18.0097 65.8365 18.4895C66.1653 18.9653 66.6769 19.2072 67.3671 19.2072Z" fill="#333333"/>
<path d="M76.9202 8.03525V10.6518H78.7553V12.7403H76.9202V18.0541C76.9202 18.4492 76.9974 18.7314 77.1476 18.9008C77.2978 19.0701 77.5901 19.1548 78.0205 19.1548C78.3371 19.1548 78.6173 19.1306 78.8649 19.0862V21.2432C78.3047 21.4125 77.7241 21.4972 77.1313 21.4972C75.1216 21.4972 74.0985 20.4893 74.0579 18.4734V12.7403H72.4908V10.6518H74.0579V8.03525H76.9202Z" fill="#333333"/>
<path d="M112.583 17.5421C112.583 16.9857 112.384 16.5543 111.99 16.256C111.596 15.9576 110.882 15.6431 109.851 15.3125C108.819 14.9819 108.003 14.6554 107.402 14.3328C105.762 13.4539 104.946 12.2686 104.946 10.7809C104.946 10.0068 105.165 9.31734 105.604 8.70855C106.042 8.09976 106.676 7.62804 107.496 7.28535C108.32 6.94265 109.242 6.77332 110.265 6.77332C111.296 6.77332 112.214 6.95878 113.021 7.3297C113.829 7.70061 114.455 8.22474 114.901 8.89804C115.348 9.57537 115.571 10.3414 115.571 11.2002H112.599C112.599 10.543 112.392 10.035 111.974 9.6681C111.556 9.30121 110.971 9.12382 110.22 9.12382C109.493 9.12382 108.929 9.27702 108.527 9.58343C108.125 9.88985 107.922 10.289 107.922 10.7889C107.922 11.2566 108.158 11.6437 108.633 11.9622C109.108 12.2807 109.802 12.5709 110.719 12.8491C112.412 13.3531 113.643 13.9821 114.418 14.7279C115.194 15.4738 115.579 16.4092 115.579 17.5219C115.579 18.7637 115.108 19.7353 114.162 20.4409C113.216 21.1464 111.946 21.4972 110.346 21.4972C109.238 21.4972 108.227 21.2956 107.313 20.8924C106.4 20.4893 105.705 19.9369 105.226 19.2354C104.747 18.5339 104.508 17.7195 104.508 16.7962H107.492C107.492 18.3766 108.442 19.1669 110.346 19.1669C111.052 19.1669 111.605 19.0258 112.002 18.7395C112.4 18.4532 112.583 18.0541 112.583 17.5421Z" fill="#333333"/>
<path d="M121.848 19.2072C122.376 19.2072 122.806 19.062 123.135 18.7758C123.464 18.4855 123.638 18.1025 123.65 17.6227H126.338C126.33 18.3444 126.135 19.0056 125.745 19.6063C125.356 20.207 124.82 20.6707 124.146 21.0053C123.468 21.3359 122.721 21.5012 121.901 21.5012C120.366 21.5012 119.16 21.0174 118.271 20.0498C117.386 19.0822 116.943 17.7437 116.943 16.0382V15.8528C116.943 14.2119 117.382 12.9015 118.263 11.9259C119.14 10.9502 120.346 10.4583 121.88 10.4583C123.22 10.4583 124.296 10.8373 125.108 11.5953C125.92 12.3532 126.33 13.3612 126.342 14.6231H123.654C123.642 14.0707 123.468 13.6192 123.139 13.2725C122.81 12.9257 122.372 12.7524 121.832 12.7524C121.166 12.7524 120.658 12.9943 120.321 13.4781C119.98 13.9619 119.81 14.744 119.81 15.8286V16.1229C119.81 17.2195 119.98 18.0097 120.317 18.4895C120.65 18.9653 121.162 19.2072 121.848 19.2072Z" fill="#333333"/>
<path d="M130.772 11.813C131.531 10.9058 132.485 10.4543 133.638 10.4543C135.964 10.4543 137.142 11.7968 137.178 14.482V21.3037H134.312V14.5586C134.312 13.9498 134.178 13.4982 133.914 13.2039C133.65 12.9136 133.212 12.7645 132.595 12.7645C131.754 12.7645 131.149 13.087 130.772 13.728V21.2956H127.905V6.17661H130.772V11.813Z" fill="#333333"/>
<path d="M138.887 15.877C138.887 14.8207 139.09 13.8772 139.501 13.0507C139.911 12.2242 140.499 11.5832 141.271 11.1316C142.042 10.6801 142.935 10.4543 143.95 10.4543C145.396 10.4543 146.577 10.8937 147.495 11.7727C148.408 12.6516 148.92 13.845 149.025 15.3569L149.046 16.0866C149.046 17.7195 148.587 19.0298 147.669 20.0176C146.752 21.0053 145.517 21.4972 143.971 21.4972C142.424 21.4972 141.189 21.0053 140.268 20.0216C139.346 19.0378 138.883 17.6993 138.883 16.006V15.877H138.887ZM141.754 16.0826C141.754 17.0946 141.945 17.8686 142.33 18.4049C142.712 18.9411 143.26 19.2072 143.975 19.2072C144.669 19.2072 145.209 18.9411 145.599 18.4129C145.988 17.8848 146.183 17.0381 146.183 15.8729C146.183 14.8811 145.988 14.1111 145.599 13.5668C145.209 13.0225 144.661 12.7483 143.954 12.7483C143.252 12.7483 142.712 13.0185 142.33 13.5628C141.945 14.103 141.754 14.9456 141.754 16.0826Z" fill="#333333"/>
<path d="M153.836 21.3037H150.962V6.18466H153.836V21.3037Z" fill="#333333"/>
<path d="M162.407 21.3037C162.273 21.0497 162.18 20.7312 162.119 20.3482C161.424 21.1142 160.523 21.5012 159.411 21.5012C158.359 21.5012 157.49 21.1989 156.8 20.5941C156.11 19.9893 155.765 19.2314 155.765 18.3121C155.765 17.1832 156.187 16.3164 157.027 15.7117C157.872 15.1069 159.086 14.8045 160.681 14.7965H162.001V14.1877C162.001 13.6958 161.875 13.3007 161.619 13.0064C161.363 12.7121 160.962 12.5629 160.413 12.5629C159.93 12.5629 159.553 12.6798 159.277 12.9056C159.001 13.1354 158.867 13.4499 158.867 13.849H156C156 13.2321 156.191 12.6596 156.577 12.1355C156.958 11.6114 157.502 11.2002 158.201 10.9018C158.899 10.6035 159.687 10.4543 160.56 10.4543C161.879 10.4543 162.931 10.7849 163.706 11.4421C164.482 12.0992 164.871 13.0306 164.871 14.224V18.8403C164.879 19.8523 165.022 20.6143 165.298 21.1343V21.3037H162.407ZM160.04 19.3241C160.462 19.3241 160.852 19.2314 161.209 19.0419C161.566 18.8524 161.83 18.6024 162.001 18.2879V16.4575H160.929C159.496 16.4575 158.733 16.9494 158.639 17.9332L158.631 18.1025C158.631 18.4573 158.757 18.7476 159.009 18.9774C159.26 19.2112 159.606 19.3241 160.04 19.3241Z" fill="#333333"/>
<path d="M173.105 13.3208C172.715 13.2684 172.37 13.2402 172.074 13.2402C170.99 13.2402 170.279 13.6031 169.942 14.3328V21.3037H167.076V10.6518H169.784L169.865 11.9218C170.442 10.9462 171.237 10.4543 172.252 10.4543C172.569 10.4543 172.865 10.4986 173.146 10.5833L173.105 13.3208Z" fill="#333333"/>
</svg>
